<svg width="32" height="32" viewBox="0 0 32 32" fill="#18B6FF" xmlns="http://www.w3.org/2000/svg">
<path d="M10.3766 2.37532C13.4823 -0.791775 18.5177 -0.791775 21.6234 2.37533L29.6707 10.5817C32.7764 13.7488 32.7764 18.8837 29.6707 22.0507L21.6234 29.6247C18.5177 32.7918 13.4823 32.7918 10.3766 29.6247L2.32929 22.0507C-0.776431 18.8837 -0.776431 13.7488 2.32929 10.5817L10.3766 2.37532ZM10.6068 11.0148C10.0875 11.0147 9.64449 11.1994 9.27728 11.5687C8.91053 11.9379 8.72727 12.3843 8.72727 12.9068C8.72727 13.429 8.91053 13.8752 9.27728 14.2445C9.64449 14.614 10.0875 14.7984 10.6068 14.7984H21.1403C21.6598 14.7984 22.1026 14.614 22.47 14.2445C22.8367 13.8752 23.0201 13.429 23.0198 12.9068C23.02 12.3843 22.8365 11.9379 22.47 11.5687L18.0616 7.13096C17.6944 6.76176 17.2515 6.57708 16.7324 6.57708C16.2133 6.57708 15.7703 6.76176 15.4031 7.13096C15.0364 7.5004 14.853 7.94654 14.853 8.46906C14.853 8.99158 15.0364 9.43757 15.4031 9.807L16.603 11.0148H10.6068ZM13.9419 24.8688C14.3095 25.2382 14.7526 25.4229 15.2721 25.4229C15.7916 25.4229 16.2349 25.2382 16.6019 24.8688C16.9694 24.4994 17.153 24.0537 17.153 23.5312C17.153 23.0086 16.9694 22.5627 16.6019 22.1932L15.4016 20.9856H21.3921C21.9113 20.9856 22.3549 20.8011 22.7221 20.4314C23.0893 20.0621 23.2727 19.6159 23.2727 19.0933C23.2727 18.571 23.0893 18.1251 22.7221 17.7557C22.3547 17.3863 21.9112 17.2014 21.3921 17.2016H10.8609C10.3414 17.2014 9.89784 17.3863 9.53086 17.7557C9.16365 18.1251 8.98001 18.571 8.98023 19.0933C8.98001 19.6159 9.16365 20.0621 9.53086 20.4314L13.9419 24.8688Z" fill="#18B6FF"/>
</svg>
