<svg width="80" height="80" viewBox="0 0 80 80" fill="none" xmlns="http://www.w3.org/2000/svg">
<path opacity="0.1" d="M29.4561 14.3674L14.3674 29.4561C8.54419 35.2793 8.54419 44.7207 14.3674 50.5439L29.4561 65.6326C35.2793 71.4558 44.7207 71.4558 50.5439 65.6326L65.6326 50.5439C71.4558 44.7207 71.4558 35.2793 65.6326 29.4561L50.5439 14.3674C44.7207 8.54419 35.2793 8.54419 29.4561 14.3674Z" fill="#18B6FF"/>
<path d="M28.309 32.8536C27.897 32.3591 27.897 31.6409 28.309 31.1465L31.6424 27.1465C32.1138 26.5807 32.9545 26.5043 33.5202 26.9757C34.0859 27.4472 34.1624 28.2879 33.691 28.8536L32.18 30.6667L45.3333 30.6667C45.3337 30.6667 45.333 30.6667 45.3333 30.6667C49.0148 30.6673 52 33.6518 52 37.3334C52 38.0698 51.403 38.6667 50.6667 38.6667C49.9303 38.6667 49.3333 38.0698 49.3333 37.3334C49.3333 35.1243 47.5425 33.3334 45.3333 33.3334C45.3338 33.3334 45.3329 33.3334 45.3333 33.3334H32.1801L33.691 35.1465C34.1624 35.7122 34.0859 36.5529 33.5202 37.0243C32.9545 37.4957 32.1138 37.4193 31.6424 36.8536L28.309 32.8536Z" fill="#18B6FF"/>
<path d="M51.691 47.1464C52.103 47.6408 52.103 48.3591 51.691 48.8535L48.3576 52.8535C47.8862 53.4192 47.0455 53.4957 46.4798 53.0243C45.9141 52.5528 45.8376 51.7121 46.309 51.1464L47.82 49.3333H34.6667C34.6663 49.3333 34.667 49.3333 34.6667 49.3333C30.9852 49.3327 28 46.3482 28 42.6666C28 41.9302 28.597 41.3333 29.3333 41.3333C30.0697 41.3333 30.6667 41.9302 30.6667 42.6666C30.6667 44.8757 32.4575 46.6666 34.6667 46.6666C34.6662 46.6666 34.6671 46.6666 34.6667 46.6666H47.8199L46.309 44.8535C45.8376 44.2878 45.9141 43.4471 46.4798 42.9757C47.0455 42.5043 47.8862 42.5807 48.3576 43.1464L51.691 47.1464Z" fill="#18B6FF"/>
</svg>
