<svg width="80" height="80" viewBox="0 0 80 80" fill="none" xmlns="http://www.w3.org/2000/svg">
<path fill-rule="evenodd" clip-rule="evenodd" d="M14.372 28.8296L29.4764 13.4513C35.3058 7.51625 44.7569 7.51625 50.5863 13.4513L65.6907 28.8296C71.52 34.7646 71.52 44.3871 65.6907 50.3222L50.5863 65.7005C44.7569 71.6355 35.3058 71.6355 29.4764 65.7005L14.372 50.3222C8.54267 44.3872 8.54267 34.7646 14.372 28.8296ZM41.0667 24.0363C49.0539 24.5611 55.4368 30.9461 55.9616 38.9333H56V40V41.0667H55.9616C55.4368 49.0539 49.0539 55.4368 41.0667 55.9616V56H40H38.9333V55.9616C30.9461 55.4368 24.5611 49.0539 24.0363 41.0667H24V40V38.9333H24.0363C24.5611 30.9461 30.9461 24.5611 38.9333 24.0363V24H40H41.0667V24.0363ZM31.5072 32.5333C32.1301 30.5749 32.9856 28.8576 34.016 27.488C31.6779 28.608 29.7024 30.3637 28.3115 32.5333H31.5072ZM30.9461 34.6667H27.1957C26.6411 35.9957 26.2869 37.4315 26.1739 38.9333H30.4213C30.4789 37.4464 30.6603 36.0149 30.9461 34.6667ZM30.4213 41.0667H26.1739C26.2869 42.5685 26.6411 44.0043 27.1957 45.3333H30.9461C30.6603 43.9851 30.4789 42.5536 30.4213 41.0667ZM31.5051 47.4667H28.3115C29.7024 49.6384 31.6779 51.392 34.016 52.512C32.9835 51.1424 32.128 49.4251 31.5051 47.4667ZM33.7067 47.4667C34.8523 50.7883 36.7403 53.1435 38.9333 53.7301V47.4667H33.7067ZM33.1072 45.3333H38.9333V41.0667H32.5547C32.6165 42.5685 32.8064 44.0043 33.1072 45.3333ZM32.5547 38.9333H38.9333V34.6667H33.1072C32.8064 35.9957 32.6165 37.4315 32.5547 38.9333ZM33.7067 32.5333H38.9333V26.272C36.7403 26.8565 34.8523 29.2117 33.7067 32.5333ZM48.4971 32.5333H51.6885C50.2976 30.3637 48.32 28.608 45.984 27.488C47.0187 28.8576 47.872 30.5749 48.4971 32.5333ZM46.2933 32.5333C45.1477 29.2117 43.2576 26.8565 41.0667 26.272V32.5333H46.2933ZM46.8907 34.6667H41.0667V38.9333H47.4453C47.3792 37.4315 47.1936 35.9957 46.8907 34.6667ZM47.4453 41.0667H41.0667V45.3333H46.8907C47.1936 44.0043 47.3835 42.5685 47.4453 41.0667ZM41.0667 47.4667V53.7301C43.2576 53.1435 45.1477 50.7883 46.2933 47.4667H41.0667ZM48.4971 47.4667C47.872 49.4251 47.0144 51.1403 45.984 52.512C48.32 51.392 50.2976 49.6384 51.6885 47.4667H48.4971ZM49.0539 45.3333H52.8043C53.3589 44.0043 53.7131 42.5685 53.824 41.0667H49.5787C49.5211 42.5536 49.3397 43.9851 49.0539 45.3333ZM49.0539 34.6667C49.3397 36.0149 49.5211 37.4464 49.5787 38.9333H53.8261C53.7131 37.4315 53.3589 35.9957 52.8043 34.6667H49.0539Z" fill="#17CF70"/>
</svg>
