<svg width="32" height="32" viewBox="0 0 32 32" fill="none" xmlns="http://www.w3.org/2000/svg">
<circle cx="12" cy="12" r="12" fill="black"/>
<path d="M11.7179 3.91968H12.2123C12.5224 3.94008 12.8331 3.95849 13.1411 4.00226C14.1957 4.15091 15.224 4.50189 16.141 5.04496C15.93 5.21286 15.7037 5.36051 15.4874 5.52114C14.0245 6.56921 12.5654 7.62273 11.1007 8.66824C10.9821 8.5698 10.8793 8.45426 10.7668 8.3493C10.4325 8.02888 10.1076 7.69904 9.77052 7.38241C9.64759 7.42684 9.53539 7.49505 9.42072 7.55674C8.65553 7.98412 8.00436 8.60696 7.53023 9.34328C6.91297 8.56344 6.32136 7.76337 5.73734 6.95876C5.71903 6.93192 5.70269 6.90409 5.68603 6.87617C5.90655 6.61235 6.14382 6.36301 6.39635 6.1297C7.6605 4.95197 9.30225 4.18328 11.0196 3.98178C11.2515 3.95023 11.4855 3.94445 11.7179 3.91968ZM15.7263 7.00781C16.2439 6.61703 16.7623 6.22707 17.2924 5.85354C18.3803 6.75948 19.2246 7.95455 19.7233 9.27936C20.3552 10.9428 20.4194 12.8131 19.9112 14.5177C19.7335 15.1183 19.4871 15.6963 19.177 16.2404C19.1286 16.1991 19.0945 16.1446 19.0567 16.0947L16.0604 12.1324C15.8664 11.8729 15.6668 11.6178 15.4759 11.3561C15.9131 10.8859 16.3692 10.4322 16.8079 9.96307C16.5022 9.30207 16.0644 8.71082 15.5214 8.22584C15.3081 8.03135 15.073 7.86396 14.8354 7.70127C15.1249 7.46111 15.4282 7.23756 15.7263 7.00781ZM4.32907 9.15226C4.47757 8.78452 4.64314 8.4214 4.84882 8.08189C5.13963 8.4484 5.41732 8.82564 5.70269 9.19677C6.6075 10.3831 7.51189 11.5696 8.41587 12.7561C8.4751 12.8343 8.53879 12.9091 8.5897 12.9931C8.13314 13.4701 7.66479 13.9359 7.21013 14.4148C7.31977 14.6741 7.46827 14.9153 7.62329 15.1498C7.85854 15.4962 8.1337 15.8136 8.44309 16.0956C8.66584 16.3039 8.91458 16.4811 9.16464 16.6548C8.94676 16.8381 8.71683 17.0065 8.4921 17.181C8.0917 17.4878 7.688 17.7902 7.281 18.0883C7.08844 18.2248 6.90381 18.3727 6.70523 18.5005C5.42434 17.4286 4.48153 15.9588 4.04353 14.3465C3.8655 13.7076 3.77887 13.0465 3.75 12.3845V11.9716C3.75957 11.8285 3.76848 11.6853 3.77846 11.5421C3.84138 10.7224 4.02699 9.91679 4.32907 9.15226ZM15.9283 15.7274C16.1325 15.5063 16.307 15.2608 16.4773 15.0136C16.6615 15.2404 16.8372 15.4744 17.0158 15.7058C17.4583 16.2879 17.8963 16.8733 18.3198 17.4692C18.199 17.6379 18.0494 17.7842 17.9073 17.9352C16.722 19.1566 15.1518 19.9998 13.4759 20.3018C13.0799 20.3779 12.6769 20.4101 12.2746 20.4364H11.677C11.4998 20.4139 11.321 20.4102 11.1438 20.3898C9.99112 20.2685 8.86137 19.9046 7.86337 19.3133C8.20508 19.0526 8.55166 18.7983 8.89503 18.5394C10.2056 17.5608 11.5157 16.5815 12.8254 15.6015C13.0477 15.8065 13.2575 16.0249 13.4762 16.2341C13.7319 16.479 13.9778 16.7356 14.2389 16.9753C14.8798 16.6818 15.4546 16.2487 15.9283 15.7274Z" fill="white"/>
<circle cx="20" cy="15" r="12" fill="#F3BA2F"/>
<path d="M17.1984 14.1436L20.4998 10.8423L23.8029 14.1453L25.7239 12.2243L20.4998 7L15.2775 12.2226L17.1984 14.1436ZM12 15.4997L13.9211 13.5787L15.842 15.4996L13.9209 17.4207L12 15.4997ZM17.1984 16.8564L20.4998 20.1577L23.8028 16.8548L25.7249 18.7748L25.7239 18.7758L20.4998 24L15.2774 18.7776L15.2746 18.7749L17.1984 16.8564ZM25.158 15.5008L27.0791 13.5797L29 15.5007L27.079 17.4217L25.158 15.5008Z" fill="white"/>
<path d="M21.2373 15.3914H21.2381L19.5181 13.6697L18.2469 14.9421H18.2469L18.1008 15.0883L17.7996 15.3899L17.7972 15.3922L17.7996 15.3947L19.5181 17.1149L21.2381 15.3932L21.2389 15.3922L21.2373 15.3914Z" fill="white"/>
<circle cx="14" cy="20" r="12" fill="#667FE3"/>
<g clip-path="url(#clip0)">
<path d="M14.1578 23.4293L14.1578 17.8889L19 20.2594L14.1578 23.4293ZM14.1578 17.508L14.1578 11.0027L18.844 19.802L14.1578 17.508ZM13.8456 11L13.8456 17.508L9.09359 19.8345L13.8456 11ZM13.8456 17.8889L13.8456 23.4295L9 20.261L13.8456 17.8889ZM14.1578 29L14.1578 24.5438L18.9674 21.3967L14.1578 29ZM13.8456 29L9.03596 21.3967L13.8456 24.5438L13.8456 29Z" fill="white"/>
</g>
<defs>
<clipPath id="clip0">
<rect width="10" height="18" fill="white" transform="matrix(-1 8.74228e-08 8.74228e-08 1 19 11)"/>
</clipPath>
</defs>
</svg>
