<svg width="12" height="12" viewBox="0 0 12 12" fill="#18B6FF" xmlns="http://www.w3.org/2000/svg">
<path fill-rule="evenodd" clip-rule="evenodd" d="M12 3C12 4.65685 10.6569 6 9 6C7.34315 6 6 4.65685 6 3C6 1.34315 7.34315 0 9 0C10.6569 0 12 1.34315 12 3ZM10.2711 3.78067C10.2711 3.95667 10.2291 4.10267 10.1451 4.21867C10.0651 4.33467 9.92507 4.47267 9.72507 4.63267C9.56907 4.75667 9.38707 4.83067 9.17907 4.85467C9.17907 5.03467 9.18107 5.14267 9.18507 5.17867C9.18507 5.21867 9.17107 5.24867 9.14307 5.26867C9.11907 5.28867 9.08707 5.29867 9.04707 5.29867C8.99507 5.29867 8.94707 5.28067 8.90307 5.24467C8.86307 5.21267 8.84307 5.16667 8.84307 5.10667C8.84307 5.03867 8.83907 4.96067 8.83107 4.87267C8.74307 4.86867 8.66107 4.85267 8.58507 4.82467C8.50907 4.79667 8.44507 4.77067 8.39307 4.74667L8.29707 4.69867C8.15307 4.59867 8.04507 4.51867 7.97307 4.45867C7.90107 4.39467 7.84307 4.32467 7.79907 4.24867C7.75507 4.17267 7.73307 4.08267 7.73307 3.97867C7.73307 3.87867 7.75507 3.81067 7.79907 3.77467C7.84307 3.73467 7.92307 3.71467 8.03907 3.71467C8.09107 3.71467 8.14107 3.72867 8.18907 3.75667C8.23707 3.78467 8.27307 3.81867 8.29707 3.85867C8.42907 4.09467 8.59907 4.24067 8.80707 4.29667C8.80707 4.27267 8.81107 4.13867 8.81907 3.89467C8.82707 3.65067 8.83307 3.40467 8.83707 3.15667C8.60907 3.07667 8.44707 3.01267 8.35107 2.96467C7.96307 2.77267 7.76907 2.49267 7.76907 2.12467C7.76907 1.96867 7.82307 1.80867 7.93107 1.64467C8.03907 1.48067 8.16507 1.36467 8.30907 1.29667C8.36507 1.26867 8.44507 1.23667 8.54907 1.20067C8.65307 1.16467 8.75307 1.13467 8.84907 1.11067C8.84907 0.998667 8.84707 0.916666 8.84307 0.864666C8.84307 0.792666 8.86107 0.742667 8.89707 0.714666C8.93307 0.682667 8.96907 0.666667 9.00507 0.666667C9.09707 0.666667 9.15307 0.698667 9.17307 0.762666C9.19707 0.826667 9.20707 0.936667 9.20307 1.09267C9.33107 1.10467 9.47307 1.15267 9.62907 1.23667C9.80907 1.34067 9.93907 1.43267 10.0191 1.51267C10.1031 1.58867 10.1451 1.68667 10.1451 1.80667C10.1451 1.87467 10.1171 1.93067 10.0611 1.97467C10.0051 2.01867 9.91307 2.04067 9.78507 2.04067C9.72907 2.04067 9.65707 1.98467 9.56907 1.87267C9.48907 1.78467 9.42707 1.73067 9.38307 1.71067C9.36707 1.70667 9.34107 1.69867 9.30507 1.68667C9.26907 1.67067 9.23307 1.65867 9.19707 1.65067C9.19707 2.01467 9.19307 2.31667 9.18507 2.55667V2.64667C9.40107 2.74267 9.57907 2.83467 9.71907 2.92267C9.91107 3.04267 10.0511 3.16267 10.1391 3.28267C10.2271 3.39867 10.2711 3.56467 10.2711 3.78067ZM8.37507 2.09467C8.37507 2.17467 8.41307 2.25067 8.48907 2.32267C8.56507 2.39067 8.65307 2.44267 8.75307 2.47867L8.84307 2.50867V1.64467C8.71107 1.67267 8.59907 1.72467 8.50707 1.80067C8.41907 1.87667 8.37507 1.97467 8.37507 2.09467ZM9.17307 4.29067C9.31707 4.25067 9.43307 4.18267 9.52107 4.08667C9.60907 3.99067 9.65307 3.89267 9.65307 3.79267C9.65307 3.61667 9.49507 3.45667 9.17907 3.31267C9.17507 3.51667 9.17307 3.84267 9.17307 4.29067ZM7.59329 7.34513L10.2655 6.66409C11.0234 6.49305 11.7005 6.86521 11.9278 7.5663C12.1232 8.16777 11.9463 9.01171 11.0961 9.44214L11.0132 9.48443C7.91324 11.0514 7.35467 11.3333 5.98729 11.3333C5.50974 11.3333 4.81712 11.1278 4.01605 10.8894L4.01147 10.8881C3.06882 10.608 2.00094 10.2908 1.21098 10.2908H0.538909C0.241601 10.2908 0 10.0367 0 9.72408C0 9.41175 0.241005 9.15801 0.538909 9.15801H1.21098C2.15117 9.15801 3.29721 9.49821 4.30859 9.79926L4.31749 9.80191C4.97874 9.99813 5.65987 10.2002 5.98669 10.2002C7.10909 10.2002 7.56699 9.96878 10.5453 8.46328L10.5461 8.46287L10.6292 8.42058C10.9069 8.27961 10.9534 8.06878 10.9087 7.93094C10.8601 7.78183 10.7129 7.72293 10.505 7.76992L7.65049 8.49733C7.47651 8.9901 7.01982 9.41614 6.34596 9.41614C6.21191 9.41614 6.06981 9.39922 5.91936 9.36288C4.50637 9.0218 3.88071 8.80671 3.83715 8.79173L3.83552 8.79117C3.55341 8.69281 3.40118 8.37202 3.49472 8.07536C3.58796 7.77838 3.89272 7.61768 4.17543 7.71635C4.1757 7.71643 4.17737 7.71699 4.18044 7.71801C4.24115 7.7383 4.85157 7.9423 6.16067 8.25924C6.33971 8.30279 6.5685 8.31062 6.64089 8.10199C6.67872 7.99328 6.67336 7.78559 6.49819 7.69067C4.94164 6.84704 3.94783 6.46705 3.67555 6.46705C3.38903 6.46705 2.96367 6.55838 2.5119 6.65538L2.49465 6.65908L2.49134 6.65979C1.90081 6.78681 1.23187 6.93068 0.613981 6.93068C0.316672 6.93068 0.0756677 6.67662 0.0756677 6.36398C0.0756677 6.05134 0.316672 5.7976 0.613981 5.7976C1.12429 5.7976 1.71116 5.67103 2.27867 5.54855L2.28131 5.54798C2.79333 5.43761 3.27704 5.33333 3.67555 5.33333C4.35864 5.33333 5.84638 6.06199 6.97424 6.67318C7.25666 6.82636 7.4643 7.06664 7.59329 7.34513Z"/>
</svg>
