<svg width="80" height="80" viewBox="0 0 80 80" fill="none" xmlns="http://www.w3.org/2000/svg">
<path opacity="0.1" d="M29.4561 14.3674L14.3674 29.4561C8.54419 35.2793 8.54419 44.7207 14.3674 50.5439L29.4561 65.6326C35.2793 71.4558 44.7207 71.4558 50.5439 65.6326L65.6326 50.5439C71.4558 44.7207 71.4558 35.2793 65.6326 29.4561L50.5439 14.3674C44.7207 8.54419 35.2793 8.54419 29.4561 14.3674Z" fill="#18B6FF"/>
<path fill-rule="evenodd" clip-rule="evenodd" d="M41.8642 25.4436C42.4072 25.6793 42.7298 26.2447 42.6563 26.832L41.5104 36H52C52.5173 36 52.988 36.2993 53.2074 36.7678C53.4269 37.2363 53.3555 37.7895 53.0243 38.1869L39.6909 54.1869C39.312 54.6416 38.6787 54.7921 38.1357 54.5564C37.5928 54.3207 37.2702 53.7553 37.3436 53.1679L38.4896 44H28C27.4826 44 27.012 43.7007 26.7925 43.2322C26.5731 42.7637 26.6445 42.2105 26.9757 41.8131L40.309 25.8131C40.6879 25.3584 41.3213 25.2079 41.8642 25.4436ZM30.8467 41.3333H39.2448C40.4478 41.3333 41.3786 42.3877 41.2293 43.5814L40.5538 48.986L49.1533 38.6667H40.7552C39.5522 38.6667 38.6214 37.6123 38.7706 36.4186L39.4462 31.0139L30.8467 41.3333Z" fill="#18B6FF"/>
</svg>
