<svg width="21" height="16" viewBox="0 0 21 16" fill="none" xmlns="http://www.w3.org/2000/svg">
<path fill-rule="evenodd" clip-rule="evenodd" d="M0.333374 1.33333C0.333374 0.596954 0.930328 0 1.66671 0C1.66671 0 18.2637 0 19 0C19.7364 0 20.3334 0.596954 20.3334 1.33333C20.3334 2.06971 19.7364 2.66667 19 2.66667H1.66671C0.930328 2.66667 0.333374 2.06971 0.333374 1.33333ZM0.333374 8C0.333374 7.26362 0.930328 6.66667 1.66671 6.66667H19C19.7364 6.66667 20.3334 7.26362 20.3334 8C20.3334 8.73638 19.7364 9.33333 19 9.33333H1.66671C0.930328 9.33333 0.333374 8.73638 0.333374 8ZM1.66671 13.3333C0.930328 13.3333 0.333374 13.9303 0.333374 14.6667C0.333374 15.403 0.930328 16 1.66671 16C1.66671 16 12.9303 16 13.6667 16C14.4031 16 15 15.403 15 14.6667C15 13.9303 14.4031 13.3333 13.6667 13.3333H1.66671Z" fill="white"/>
</svg>
