<svg width="14" height="14" viewBox="0 0 14 14" fill="none" xmlns="http://www.w3.org/2000/svg">
<path d="M7.83325 10.5002C7.83325 10.8684 7.53478 11.1668 7.16659 11.1668H6.83325C6.46506 11.1668 6.16659 10.8684 6.16659 10.5002V10.1668C6.16659 9.79864 6.46506 9.50016 6.83325 9.50016H7.16659C7.53478 9.50016 7.83325 9.79864 7.83325 10.1668V10.5002Z" fill="#18B6FF"/>
<path d="M6.05711 4.72402C6.29912 4.48201 6.63154 4.3335 6.99992 4.3335C7.7363 4.3335 8.33325 4.93045 8.33325 5.66683C8.33325 6.40321 7.7363 7.00016 6.99992 7.00016C6.63172 7.00016 6.33325 7.29864 6.33325 7.66683C6.33325 8.03502 6.63172 8.3335 6.99992 8.3335C8.47268 8.3335 9.66659 7.13959 9.66659 5.66683C9.66659 4.19407 8.47268 3.00016 6.99992 3.00016C6.26372 3.00016 5.59614 3.29937 5.1143 3.78121C4.85395 4.04156 4.85395 4.46367 5.1143 4.72402C5.37464 4.98437 5.79676 4.98437 6.05711 4.72402Z" fill="#18B6FF"/>
<path fill-rule="evenodd" clip-rule="evenodd" d="M13.6666 7.00016C13.6666 10.6821 10.6818 13.6668 6.99992 13.6668C3.31802 13.6668 0.333252 10.6821 0.333252 7.00016C0.333252 3.31826 3.31802 0.333495 6.99992 0.333496C10.6818 0.333497 13.6666 3.31827 13.6666 7.00016ZM6.99992 12.3335C9.94543 12.3335 12.3333 9.94568 12.3333 7.00016C12.3333 4.05465 9.94543 1.66683 6.99992 1.66683C4.0544 1.66683 1.66659 4.05464 1.66659 7.00016C1.66659 9.94568 4.0544 12.3335 6.99992 12.3335Z" fill="#18B6FF"/>
</svg>
