<svg width="80" height="80" viewBox="0 0 80 80" fill="none" xmlns="http://www.w3.org/2000/svg">
<path fill-rule="evenodd" clip-rule="evenodd" d="M14.3713 28.8296L29.4758 13.4513C35.3051 7.51625 44.7563 7.51625 50.5856 13.4513L65.69 28.8296C71.5194 34.7646 71.5194 44.3871 65.69 50.3222L50.5856 65.7005C44.7563 71.6355 35.3051 71.6355 29.4758 65.7005L14.3713 50.3222C8.542 44.3871 8.542 34.7646 14.3713 28.8296ZM31.2995 35.6V32.7001L31.2994 32.6619C31.2993 32.6365 31.2992 32.6111 31.2995 32.5857L31.2995 32.5842C31.3616 27.8327 35.2326 24 39.9989 24C44.7651 24 48.6362 27.8327 48.6982 32.5842H48.7001V35.6C49.9808 35.6007 51.0188 36.6392 51.0188 37.92V50.6802C51.0188 51.9615 49.9801 53.0002 48.6988 53.0002H31.2985C30.0172 53.0002 28.9785 51.9615 28.9785 50.6802V37.92C28.9785 36.6387 30.0182 35.6 31.2995 35.6ZM33.6195 32.6021C33.6719 29.1237 36.508 26.32 39.9989 26.32C43.5225 26.32 46.3789 29.1765 46.3789 32.7001H46.3801V35.6H33.6195V32.6021ZM31.2985 37.92H48.6988V50.6802H31.2985L31.2985 37.92ZM41.3683 44.1298C41.1906 44.2602 41.1432 44.3846 41.1432 44.592C41.1491 45.5224 41.1491 46.4468 41.1491 47.3771C41.1669 47.7623 40.9713 48.1415 40.6276 48.3134C39.8158 48.7282 39.004 48.1474 39.004 47.3771V47.3712C39.004 46.4408 39.004 45.5105 39.0099 44.5802C39.0099 44.3906 38.9684 44.2661 38.8025 44.1417C37.9611 43.5195 37.6825 42.4588 38.1033 41.5284C38.5121 40.6218 39.5136 40.0885 40.4558 40.2781C41.5046 40.4915 42.2335 41.3329 42.2453 42.3817C42.2453 43.1106 41.955 43.7032 41.3683 44.1298Z" fill="#F7C440"/>
</svg>
