<svg width="18" height="20" viewBox="0 0 18 20" fill="none" xmlns="http://www.w3.org/2000/svg">
<path fill-rule="evenodd" clip-rule="evenodd" d="M12.5152 9.73425C9.92792 9.88335 8.30644 9.28065 5.71877 9.4301C5.07698 9.46614 4.43964 9.55916 3.81422 9.70806C4.19618 4.9227 7.58292 0.736565 12.1883 0.470479C15.0145 0.307405 17.8393 2.05233 17.9925 4.88499C18.1432 7.66911 16.02 9.53207 12.5152 9.73425ZM5.56731 19.5225C2.85986 19.6755 0.154151 18.0419 0.00721929 15.3912C-0.137276 12.7855 1.89679 11.0423 5.25429 10.8531C7.73264 10.7134 9.28622 11.2777 11.7646 11.1377C12.3791 11.104 12.9895 11.0169 13.589 10.8775C13.2238 15.3559 9.97945 19.2739 5.56731 19.5225Z" fill="#18B6FF"/>
</svg>
