<svg width="58" height="17" viewBox="0 0 58 17" fill="#18B6FF" xmlns="http://www.w3.org/2000/svg">
<path d="M6.048 4.656L6.576 1.656C6.024 1.56 5.448 1.512 4.848 1.512C4.248 1.512 3.648 1.56 3 1.656L2.472 4.656H0.504C0.336 5.136 0.192 5.664 0.12 6.24C0.048 6.696 0 7.176 0 7.584H1.968L1.176 12.024C1.104 12.408 1.08 12.768 1.08 13.104C1.08 15.384 2.64 16.224 4.704 16.224C6.288 16.224 7.704 15.696 8.616 15C8.616 14.064 8.064 13.056 7.344 12.6C6.984 12.888 6.504 13.176 5.904 13.176C5.208 13.176 4.752 12.888 4.752 12.144C4.752 11.88 4.8 11.688 4.848 11.448L5.52 7.584H9.024C9.312 6.816 9.552 6.072 9.552 5.16V4.656H6.048Z" fill="#192345"/>
<path d="M19.0273 12.384C18.1393 13.056 17.2513 13.536 16.0513 13.536C14.3953 13.536 13.6273 12.888 13.6273 11.136C14.4433 11.352 15.2833 11.448 16.0993 11.448C18.5473 11.448 21.1153 10.512 21.1153 7.728C21.1153 5.616 19.4353 4.152 16.4593 4.152C12.7393 4.152 10.0273 7.08 10.0273 11.208C10.0273 14.616 12.0913 16.272 15.4273 16.272C17.5633 16.272 19.2913 15.528 20.3473 14.64C20.3233 13.752 19.9153 12.888 19.0273 12.384ZM16.2193 6.816C17.1313 6.816 17.6353 7.344 17.6353 7.992C17.6353 8.856 16.9873 9.36 15.8593 9.36C15.3313 9.336 14.6353 9.288 13.8433 9.096C14.2033 7.704 14.9713 6.816 16.2193 6.816Z" fill="#192345"/>
<path d="M25.2377 16.2C26.5097 16.2 27.5417 15.792 28.1657 15.312C28.1897 14.208 27.9017 13.32 27.1337 12.672C26.8937 12.888 26.7737 12.936 26.5337 12.936C26.1977 12.936 25.9817 12.744 25.9817 12.408C25.9817 12.264 26.0057 12.168 26.0297 12.048L28.1417 0.144C27.6137 0.0239997 27.0137 0 26.4137 0C25.8377 0 25.2137 0.0239997 24.5657 0.144L22.4057 12.36C22.3337 12.696 22.2617 13.344 22.2617 13.776C22.2617 15.264 23.2217 16.2 25.2377 16.2Z" fill="#192345"/>
<path d="M32.5268 16.2C33.7988 16.2 34.8308 15.792 35.4548 15.312C35.4788 14.208 35.1908 13.32 34.4228 12.672C34.1828 12.888 34.0628 12.936 33.8228 12.936C33.4868 12.936 33.2708 12.744 33.2708 12.408C33.2708 12.264 33.2948 12.168 33.3188 12.048L35.4308 0.144C34.9028 0.0239997 34.3028 0 33.7028 0C33.1268 0 32.5028 0.0239997 31.8548 0.144L29.6948 12.36C29.6228 12.696 29.5508 13.344 29.5508 13.776C29.5508 15.264 30.5108 16.2 32.5268 16.2Z" fill="#192345"/>
<path d="M45.6054 12.384C44.7174 13.056 43.8294 13.536 42.6295 13.536C40.9734 13.536 40.2055 12.888 40.2055 11.136C41.0215 11.352 41.8615 11.448 42.6775 11.448C45.1255 11.448 47.6935 10.512 47.6935 7.728C47.6935 5.616 46.0135 4.152 43.0374 4.152C39.3174 4.152 36.6054 7.08 36.6054 11.208C36.6054 14.616 38.6694 16.272 42.0055 16.272C44.1414 16.272 45.8694 15.528 46.9254 14.64C46.9015 13.752 46.4935 12.888 45.6054 12.384ZM42.7975 6.816C43.7094 6.816 44.2135 7.344 44.2135 7.992C44.2135 8.856 43.5654 9.36 42.4375 9.36C41.9095 9.336 41.2135 9.288 40.4215 9.096C40.7814 7.704 41.5494 6.816 42.7975 6.816Z" fill="#192345"/>
<path d="M54.7678 4.056C52.7518 4.056 51.0478 4.776 50.2558 5.28L48.4078 15.864C48.9838 15.96 49.5598 16.008 50.1598 16.008C50.7598 16.008 51.3598 15.96 51.9838 15.864L53.4238 7.656C53.8078 7.44 54.4078 7.296 55.0558 7.296C55.5598 7.296 55.9198 7.368 56.3038 7.488C57.0238 6.696 57.4798 5.616 57.5998 4.512C56.9758 4.2 56.0158 4.056 54.7678 4.056Z" fill="#192345"/>
</svg>
