<svg width="24" height="24" viewBox="0 0 24 24" fill="none" xmlns="http://www.w3.org/2000/svg">
<path fill-rule="evenodd" clip-rule="evenodd" d="M8 4C6.34315 4 5 5.34315 5 7C5 8.65685 6.34315 10 8 10C9.65685 10 11 8.65685 11 7C11 5.34315 9.65685 4 8 4ZM3 7C3 4.23858 5.23858 2 8 2C10.7614 2 13 4.23858 13 7C13 9.76142 10.7614 12 8 12C5.23858 12 3 9.76142 3 7ZM5 16C3.89543 16 3 16.8954 3 18V20C3 20.5523 2.55228 21 2 21C1.44772 21 1 20.5523 1 20V18C1 15.7909 2.79086 14 5 14H11C13.2091 14 15 15.7909 15 18V20C15 20.5523 14.5523 21 14 21C13.4477 21 13 20.5523 13 20V18C13 16.8954 12.1046 16 11 16H5Z" fill="#18B6FF"/>
<path d="M16 11C15.4477 11 15 10.5523 15 10V8C15 7.44772 15.4477 7 16 7C16.5523 7 17 7.44772 17 8L21 8C21 7.44772 21.4477 7 22 7C22.5523 7 23 7.44772 23 8L23 10C23 10.5523 22.5523 11 22 11C21.4477 11 21 10.5523 21 10L20 10V15C20 15.5523 19.5523 16 19 16C18.4477 16 18 15.5523 18 15V10H17C17 10.5523 16.5523 11 16 11Z" fill="#18B6FF"/>
</svg>
