<svg width="14" height="13" viewBox="0 0 14 13" fill="#18B6FF" xmlns="http://www.w3.org/2000/svg">
<path d="M13.4125 4.94742C13.502 4.94742 13.5878 4.91207 13.6511 4.84915C13.7144 4.78622 13.75 4.70088 13.75 4.6119V3.94085C13.751 3.87949 13.7344 3.81909 13.7022 3.76679C13.6699 3.71448 13.6232 3.67243 13.5677 3.64559L7.15525 0.290345C7.10783 0.263893 7.05437 0.25 7 0.25C6.94563 0.25 6.89217 0.263893 6.84475 0.290345L0.432298 3.64559C0.376782 3.67243 0.330134 3.71448 0.297847 3.76679C0.26556 3.81909 0.248976 3.87949 0.250049 3.94085V4.6119C0.250049 4.70088 0.285607 4.78622 0.3489 4.84915C0.412193 4.91207 0.498037 4.94742 0.587546 4.94742H2.27503V10.9869H1.26254C1.17303 10.9869 1.08719 11.0222 1.02389 11.0851C0.960602 11.1481 0.925044 11.2334 0.925044 11.3224V12.6645C0.925044 12.7535 0.960602 12.8388 1.02389 12.9017C1.08719 12.9647 1.17303 13 1.26254 13H12.7375C12.827 13 12.9128 12.9647 12.9761 12.9017C13.0394 12.8388 13.075 12.7535 13.075 12.6645V11.3224C13.075 11.2334 13.0394 11.1481 12.9761 11.0851C12.9128 11.0222 12.827 10.9869 12.7375 10.9869H11.725V4.94742H13.4125ZM4.30002 4.94742H5.98751V10.9869H4.30002V4.94742ZM9.69998 10.9869H8.01249V4.94742H9.69998V10.9869Z" fill="#18B6FF"/>
</svg>
