<svg width="18" height="20" viewBox="0 0 18 20" fill="none" xmlns="http://www.w3.org/2000/svg">
<path fill-rule="evenodd" clip-rule="evenodd" d="M14.19 8.28636C14.3849 9.11 14.8065 9.86182 15.4084 10.46L15.7953 10.8445C16.1219 11.1691 16.2637 11.6336 16.1731 12.0836L16.0889 12.5C15.9563 13.1609 15.3718 13.6364 14.694 13.6364H3.30598C2.62818 13.6364 2.04369 13.1609 1.91105 12.5L1.8269 12.0836C1.73635 11.6336 1.87812 11.1691 2.20467 10.8445L2.59159 10.46C3.19347 9.86182 3.61515 9.11 3.80998 8.28636L4.51155 5.32273C4.99726 3.26909 6.8413 1.81818 8.96341 1.81818H9.03659C11.1587 1.81818 13.0027 3.26909 13.4884 5.32273L14.19 8.28636ZM0.942253 9.54852L1.32917 9.16397C1.69262 8.80275 1.94361 8.35278 2.05928 7.86382L2.76084 4.90025C3.44463 2.00986 6.02749 0 8.96341 0H9.03659C11.9725 0 14.5553 2.00949 15.2391 4.89988L15.9407 7.86352C16.0563 8.35248 16.3074 8.80275 16.6708 9.16397L17.0578 9.54852C17.8138 10.3 18.1502 11.3867 17.937 12.4458L17.9367 12.4473L17.8528 12.8627C17.5452 14.3916 16.206 15.4545 14.694 15.4545H13.5441C13.5441 17.9927 11.4821 20 9 20C6.51786 20 4.45591 17.9927 4.45591 15.4545H3.30598C1.79399 15.4545 0.454835 14.3917 0.147258 12.8627L0.14695 12.8612L0.0629893 12.4458C-0.150148 11.3867 0.18616 10.3 0.942253 9.54852ZM6.25589 15.4545C6.25589 16.1531 6.52006 16.7902 6.95453 17.2727C7.45698 17.8307 8.18719 18.1818 9 18.1818C9.81281 18.1818 10.543 17.8307 11.0455 17.2727C11.4799 16.7902 11.7441 16.1531 11.7441 15.4545H6.25589Z" fill="#18B6FF"/>
</svg>
