<svg width="35" height="16" viewBox="0 0 35 16" fill="#18B6FF" xmlns="http://www.w3.org/2000/svg">
<path fill-rule="evenodd" clip-rule="evenodd" d="M2.15019 1.2H32.9703V14.2662H2.15019V1.2ZM2.15019 0C1.48746 0 0.950195 0.537259 0.950195 1.2V14.2662C0.950195 14.929 1.48746 15.4662 2.15019 15.4662H32.9703C33.633 15.4662 34.1703 14.929 34.1703 14.2662V1.2C34.1703 0.537258 33.633 0 32.9703 0H2.15019ZM12.0168 8.85241C12.0168 9.68607 11.2835 10.4348 10.1796 10.4348H7.7327V5.03147H10.0484C11.0519 5.03147 11.7466 5.72619 11.7466 6.4595C11.7466 7.2314 11.1291 7.57876 11.1291 7.57876C11.1291 7.57876 12.0168 7.92612 12.0168 8.85241ZM8.89056 8.0805V9.46993H10.1256C10.5502 9.46993 10.8589 9.16117 10.8589 8.77522C10.8589 8.38926 10.5502 8.0805 10.1256 8.0805H8.89056ZM10.5888 6.57528C10.5888 6.22793 10.3572 5.99635 9.97122 5.99635H8.89056V7.15421H9.97122C10.3572 7.15421 10.5888 6.92264 10.5888 6.57528ZM14.2577 8.19629V9.39274H17.1524V10.4348H13.0999V5.03147H17.0752V6.07354H14.2577V7.15421H16.4577V8.19629H14.2577ZM17.693 5.03147V6.07354H19.2368V10.4348H20.3947V6.07354H21.9385V5.03147H17.693ZM24.4493 6.38231L23.7932 8.15769H25.1054L24.4493 6.38231ZM25.9545 10.4348L25.4914 9.16117H23.4072L22.9441 10.4348H21.709L23.8318 5.03147H25.0668L27.1896 10.4348H25.9545Z" fill="#18B6FF"/>
</svg>
