<svg width="24" height="24" viewBox="0 0 24 24" fill="none" xmlns="http://www.w3.org/2000/svg">
<path d="M16.6783 10.7348C17.0841 10.3602 17.1094 9.72755 16.7348 9.32172C16.3602 8.9159 15.7276 8.8906 15.3217 9.2652C14.2195 10.2826 12.9555 11.547 11.973 12.5504C11.6083 12.9228 11.281 13.2608 11.0133 13.5388L10.9727 13.4963C10.5028 13.0051 9.85546 12.3573 9.15852 11.7474C8.74288 11.3837 8.11112 11.4259 7.74744 11.8415C7.38375 12.2571 7.42587 12.8889 7.84151 13.2526C8.4779 13.8094 9.08053 14.4116 9.52737 14.8787C9.74982 15.1113 9.93151 15.3081 10.0569 15.4461C10.1196 15.5151 10.1681 15.5692 10.2006 15.6056L10.2368 15.6465L10.2454 15.6562L10.2476 15.6587C10.4331 15.8706 10.6994 15.9945 10.981 15.9998C11.2627 16.0052 11.534 15.891 11.7274 15.6862L11.7583 15.6536L11.8507 15.5562C11.9316 15.4712 12.0498 15.3471 12.1986 15.1919C12.4961 14.8814 12.9155 14.4466 13.402 13.9496C14.3779 12.953 15.6138 11.7174 16.6783 10.7348Z" fill="#44D058"/>
<path fill-rule="evenodd" clip-rule="evenodd" d="M12 2C17.5229 2 22 6.47717 22 12C22 17.5228 17.5229 22 12 22C6.47705 22 2 17.5228 2 12C2 6.47717 6.47705 2 12 2ZM12 4C7.58179 4 4 7.58167 4 12C4 16.4183 7.58179 20 12 20C16.4182 20 20 16.4183 20 12C20 7.58167 16.4182 4 12 4Z" fill="#44D058"/>
</svg>
