<svg width="32" height="32" viewBox="0 0 32 32" fill="#18B6FF" xmlns="http://www.w3.org/2000/svg">
<path fill-rule="evenodd" clip-rule="evenodd" d="M16.0002 13.7143L10.2938 8.00792C9.65733 7.37148 8.63144 7.36892 8.00027 8.0001C7.36469 8.63567 7.3726 9.65811 8.00809 10.2936L13.7145 16L8.00809 21.7064C7.37165 22.3428 7.36909 23.3687 8.00027 23.9999C8.63584 24.6355 9.65828 24.6276 10.2938 23.9921L16.0002 18.2857L21.7066 23.9921C22.343 24.6285 23.3689 24.6311 24.0001 23.9999C24.6356 23.3643 24.6277 22.3419 23.9922 21.7064L18.2859 16L23.9922 10.2936C24.6287 9.65716 24.6312 8.63127 24.0001 8.0001C23.3645 7.36452 22.3421 7.37243 21.7066 8.00792L16.0002 13.7143Z" fill="black"/>
</svg>
