<svg width="22" height="17" viewBox="0 0 22 17" fill="none" xmlns="http://www.w3.org/2000/svg">
<path fill-rule="evenodd" clip-rule="evenodd" d="M9.99998 4C9.99998 6.20911 8.20921 8 5.99998 8C3.79075 8 1.99998 6.20911 1.99998 4C1.99998 1.79089 3.79075 0 5.99998 0C8.20921 0 9.99998 1.79089 9.99998 4ZM7.99998 4C7.99998 5.10461 7.10448 6 5.99998 6C4.89549 6 3.99998 5.10461 3.99998 4C3.99998 2.89539 4.89549 2 5.99998 2C7.10448 2 7.99998 2.89539 7.99998 4Z" fill="#18B6FF"/>
<path fill-rule="evenodd" clip-rule="evenodd" d="M20 7C20 9.20911 18.2092 11 16 11C13.7908 11 12 9.20911 12 7C12 4.79089 13.7908 3 16 3C18.2092 3 20 4.79089 20 7ZM18 7C18 8.10461 17.1045 9 16 9C14.8955 9 14 8.10461 14 7C14 5.89539 14.8955 5 16 5C17.1045 5 18 5.89539 18 7Z" fill="#18B6FF"/>
<path d="M1.55199 12.9336L1.21336 12.6343C0.866927 12.3281 0.877181 11.7845 1.23509 11.4918L1.63573 11.1639C2.74315 10.4288 4.07127 10.0005 5.49998 10H6.49998C7.92943 10 9.25853 10.4285 10.3664 11.1639L10.7671 11.4918C11.125 11.7845 11.1352 12.3281 10.7888 12.6343L10.4502 12.9336C10.2036 13.1515 9.84398 13.1832 9.56322 13.0121L8.99998 12.6688C8.26463 12.2435 7.41063 12 6.49998 12H5.50218C4.59154 12 3.73753 12.2435 3.00218 12.6688L2.43895 13.0121C2.15819 13.1832 1.79857 13.1515 1.55199 12.9336Z" fill="#18B6FF"/>
<path d="M11.052 15.9336L10.7134 15.6343C10.3669 15.3281 10.3772 14.7845 10.7351 14.4918L11.1357 14.1639C12.2436 13.4285 13.5727 13 15.0022 13H17.0022C18.4316 13 19.7607 13.4285 20.8686 14.1639L21.2693 14.4918C21.6272 14.7845 21.6374 15.3281 21.291 15.6343L20.9524 15.9336C20.9128 15.9686 20.8701 15.9989 20.8254 16.0242C20.7868 16.046 20.7468 16.0642 20.7058 16.0787C20.602 16.1154 20.4917 16.1288 20.3826 16.1182C20.2727 16.1074 20.164 16.0723 20.0654 16.0121L19.5022 15.6688C18.7668 15.2435 17.9128 15 17.0022 15H15.0022C14.0915 15 13.2375 15.2435 12.5022 15.6688L11.9389 16.0121C11.6582 16.1832 11.2986 16.1515 11.052 15.9336Z" fill="#18B6FF"/>
</svg>
