<svg width="16" height="13" viewBox="0 0 16 13" fill="none" xmlns="http://www.w3.org/2000/svg">
<path d="M7.25325 12.6265L10.9466 8.93319C11.1933 8.68652 11.3333 8.34652 11.3333 7.99319V1.33319C11.3333 0.599858 10.7333 -0.000142097 9.99992 -0.000142097H3.99992C3.46659 -0.000142097 2.98659 0.319858 2.77325 0.806524L0.599919 5.87986C0.0399189 7.19986 1.00659 8.66652 2.43992 8.66652H6.20659L5.57325 11.7199C5.50659 12.0532 5.60659 12.3932 5.84659 12.6332C6.23992 13.0199 6.86659 13.0199 7.25325 12.6265ZM13.9999 -0.000142097C13.2666 -0.000142097 12.6666 0.599858 12.6666 1.33319V6.66653C12.6666 7.39986 13.2666 7.99986 13.9999 7.99986C14.7333 7.99986 15.3333 7.39986 15.3333 6.66653V1.33319C15.3333 0.599858 14.7333 -0.000142097 13.9999 -0.000142097Z" fill="#939BA1"/>
</svg>
