<svg width="10" height="11" viewBox="0 0 10 11" fill="#18B6FF" xmlns="http://www.w3.org/2000/svg">
<path d="M5.58334 1.33333V5.17506L6.33757 4.42083C6.5653 4.19303 6.93472 4.19303 7.16244 4.42083C7.39031 4.64869 7.39031 5.01797 7.16244 5.24584L5.41244 6.99584C5.3992 7.00901 5.38539 7.02155 5.371 7.03344C5.27017 7.11668 5.141 7.16667 5.00001 7.16667C4.83894 7.16667 4.6931 7.10137 4.58757 6.99584L2.83757 5.24584C2.60971 5.01797 2.60971 4.64869 2.83757 4.42083C3.0653 4.19303 3.43472 4.19303 3.66244 4.42083L4.41668 5.17506V1.33333C4.41668 1.01119 4.67787 0.75 5.00001 0.75C5.32215 0.75 5.58334 1.01119 5.58334 1.33333Z" fill="white"/>
<path d="M0.333344 7.75V8.91667C0.333344 9.88317 1.11685 10.6667 2.08334 10.6667H7.91668C8.88317 10.6667 9.66668 9.88317 9.66668 8.91667V7.75C9.66668 7.42783 9.40551 7.16667 9.08334 7.16667C8.76118 7.16667 8.50001 7.42783 8.50001 7.75V8.91667C8.50001 9.23883 8.23884 9.5 7.91668 9.5H2.08334C1.76118 9.5 1.50001 9.23883 1.50001 8.91667V7.75C1.50001 7.42783 1.23884 7.16667 0.916677 7.16667C0.594511 7.16667 0.333344 7.42783 0.333344 7.75Z" fill="white"/>
</svg>
