<svg width="20" height="20" viewBox="0 0 20 20" fill="none" xmlns="http://www.w3.org/2000/svg">
<path d="M10 20C15.5228 20 20 15.5228 20 10C20 4.47715 15.5228 0 10 0C4.47715 0 0 4.47715 0 10C0 15.5228 4.47715 20 10 20Z" fill="url(#paint0_radial)"/>
<path d="M19.3295 13.6078C19.3619 13.5239 19.3933 13.4394 19.4235 13.3545L19.3948 13.3374C19.3531 13.3124 19.3015 13.3191 19.2681 13.3541L19.2515 13.3708C19.24 13.3822 19.2316 13.396 19.2266 13.4107C19.222 13.4238 19.2201 13.4376 19.2209 13.4514C19.2213 13.4587 19.2225 13.4659 19.2244 13.473C19.2262 13.4794 19.2285 13.4857 19.2315 13.4918C19.2354 13.4997 19.2404 13.5072 19.2465 13.5141L19.3295 13.6078Z" fill="url(#paint1_radial)"/>
<path fill-rule="evenodd" clip-rule="evenodd" d="M19.6761 12.5343L19.6281 12.1374C19.6132 12.0224 19.4932 11.9508 19.3865 11.9924C19.2898 12.0291 19.1781 11.9908 19.1348 11.8941L18.7698 11.0674C18.7298 10.9741 18.6148 10.9441 18.5332 11.0024L17.8698 11.4808C17.5981 11.6774 17.4231 11.9791 17.3881 12.3124L17.3731 12.4624C17.3648 12.5391 17.3265 12.6124 17.2665 12.6624L17.1115 12.7941C16.9465 12.9358 16.6898 12.8624 16.6248 12.6541L16.3431 11.7641C16.2798 11.5658 16.1798 11.3824 16.0448 11.2241L15.5998 10.6991C15.5065 10.5874 15.3748 10.5124 15.2298 10.4891L14.3731 10.3491C14.0181 10.2908 13.7115 10.0974 13.4398 9.86076C13.3431 9.77743 13.1965 9.78076 13.1031 9.87575C13.0315 9.95077 13.0181 10.0658 13.0615 10.1591L13.2865 10.6591C13.3282 10.7474 13.4381 10.7791 13.5198 10.7241L13.6615 10.6274C13.7815 10.5441 14.2981 11.2824 13.9965 11.4591L13.0148 12.0324C12.6898 12.2224 12.2731 12.1008 12.0998 11.7674L11.3348 10.2941C11.3081 10.2424 11.2531 10.2091 11.1948 10.2091C11.0815 10.2091 11.0048 10.3274 11.0515 10.4324L11.8731 12.2508C12.0415 12.6241 12.4681 12.7491 12.8448 12.5824C13.0332 12.4991 13.2365 12.6774 13.1948 12.8791L13.1398 13.1458C13.0831 13.4208 12.9432 13.6708 12.7365 13.8608L12.2315 14.3258C12.0098 14.5308 11.8965 14.8258 11.9265 15.1258L11.8881 15.9858C11.8865 16.1691 11.8048 16.3408 11.6698 16.4641C11.4565 16.6574 11.3048 16.8858 11.1615 17.1358L10.5231 18.2591C10.3148 18.6224 9.97147 18.8874 9.56648 18.9941L9.37312 19.0458C9.10815 19.1158 8.83146 18.9724 8.73315 18.7158L8.14648 17.1774C8.0098 16.8158 7.96813 16.4241 8.02982 16.0424L8.04813 15.9308C8.0948 15.6408 8.07816 15.3441 7.99979 15.0608L7.72147 14.0641C7.6348 13.7508 7.3448 13.5408 7.02148 13.5541L5.88981 13.6024C5.59647 13.6141 5.31148 13.5091 5.09647 13.3091L4.57315 12.8224C4.29479 12.5624 4.15148 12.1891 4.18814 11.8091L4.22981 11.3691C4.28482 10.8008 4.5148 10.2641 4.88814 9.83242L5.06648 9.62742C5.38146 9.2641 5.81148 9.01577 6.28482 8.92576L7.50646 8.69242C7.70646 8.65409 7.89147 8.80577 7.89648 9.0091C7.89982 9.13243 7.94315 9.25075 8.04146 9.32577L8.76147 9.87409C8.82979 9.92576 8.92647 9.9141 8.97981 9.84743L9.27982 9.47909C9.31982 9.43077 9.38647 9.41077 9.44649 9.42743L10.7565 9.8041C10.8365 9.82743 10.9198 9.7841 10.9482 9.70575L11.1298 9.20077C11.1648 9.10242 11.0981 8.99744 10.9932 8.9891L10.3581 8.94242C10.3065 8.93742 10.2615 8.9091 10.2348 8.86576L10.2048 8.81742C10.1681 8.75743 10.1665 8.68244 10.2032 8.62409C10.2881 8.48576 10.3831 8.35575 10.4865 8.23075C10.5282 8.18077 10.5931 8.15409 10.6582 8.16077L10.665 8.16138L10.6662 8.1615L10.6683 8.16168C11.1235 8.20353 11.9265 8.2773 11.9265 8.26076C11.9265 8.25254 11.9574 8.18634 11.9963 8.10331C12.0677 7.95042 12.1659 7.74048 12.1465 7.73075C12.1215 7.71743 11.0998 7.2041 10.7448 7.02576C10.6748 6.99076 10.5915 7.01243 10.5465 7.07577L10.1215 7.67409C10.0798 7.73409 10.0831 7.81409 10.1315 7.8691L10.1831 7.9291C10.2131 7.96242 10.2215 8.0091 10.2032 8.04909C10.1582 8.15243 10.1015 8.25576 10.0348 8.35242C10.0031 8.39742 9.94315 8.41575 9.88981 8.39909C9.80647 8.37242 9.69315 8.35409 9.66813 8.43575L9.61482 8.6141C9.57979 8.73075 9.43147 8.76577 9.34814 8.67576L9.06481 8.36743C9.02982 8.3291 9.01647 8.27743 9.02648 8.22742C9.07149 8.0141 9.01147 7.79242 8.8448 7.65243L8.51981 7.37909C8.44982 7.31909 8.3448 7.31075 8.26981 7.36576C8.16312 7.44409 8.1748 7.57076 8.25313 7.63243L8.69649 7.97577C8.83312 8.08077 8.80147 8.32577 8.55314 8.36243C8.41646 8.38243 8.27982 8.31409 8.19649 8.2041L7.86482 7.76243C7.71647 7.56576 7.45646 7.49243 7.22814 7.58075L7.1348 7.61743C6.94148 7.69409 6.77481 7.8291 6.66149 8.00409L6.40816 8.39575C6.26314 8.6191 6.00146 8.73743 5.73815 8.69743L5.37145 8.64077C5.1798 8.61243 5.04146 8.44409 5.05147 8.22577L5.05647 8.12409C5.07315 7.77576 5.37145 7.49909 5.71647 7.53577C5.96313 7.56242 6.13981 7.30744 6.03149 7.08742L5.90482 6.83075C5.80981 6.6391 5.89815 6.40743 6.0948 6.32743L6.58146 6.12742C6.75313 6.05743 6.87646 5.90576 6.91149 5.72243C6.93314 5.61076 7.02982 5.53076 7.14314 5.53076H7.20812C7.36649 5.53076 7.47981 5.37575 7.43147 5.2241C7.40649 5.14408 7.43648 5.05577 7.5098 5.00743C7.61149 4.94076 7.74149 4.99076 7.78979 5.10242L7.85148 5.24742C7.87813 5.3091 7.93648 5.35409 8.0048 5.36076L8.87312 5.45742C8.94315 5.46409 9.0098 5.42409 9.03649 5.35909L9.26647 4.79075C9.30147 4.70577 9.40148 4.66742 9.48482 4.71076L9.6348 4.78908C9.68481 4.81409 9.74483 4.79576 9.77315 4.74742C9.79646 4.70575 9.78812 4.65243 9.75313 4.6191L9.64982 4.52075C9.60314 4.47577 9.58813 4.40743 9.61149 4.34743L9.66149 4.2191C9.68147 4.16742 9.72648 4.13076 9.78149 4.12077L10.0065 4.08242C10.1481 4.05743 10.1865 3.87242 10.0665 3.79409L10.0415 3.77743C10.0277 3.76849 10.0126 3.76192 9.99706 3.75773C9.98067 3.75334 9.96358 3.75157 9.94649 3.75242C9.66312 3.76908 9.39648 3.61076 9.27648 3.35242L9.22314 3.23743C9.18481 3.15409 9.22481 3.0541 9.31148 3.02242L9.32649 3.01744C9.36979 3.00242 9.40482 2.96743 9.41979 2.92409L9.61149 2.39575C9.62149 2.36749 9.61857 2.33724 9.60567 2.31207C9.60363 2.30807 9.60131 2.3042 9.59875 2.3005C9.59501 2.295 9.59073 2.28986 9.58597 2.28516C9.57714 2.27645 9.56669 2.26925 9.5548 2.2641L9.48982 2.23576C9.4792 2.23116 9.4683 2.22844 9.45743 2.22744C9.44148 2.22599 9.42565 2.22829 9.41101 2.23387C9.38867 2.24237 9.36918 2.25855 9.35648 2.28076L8.79813 3.29075C8.75646 3.36743 8.77482 3.46409 8.84313 3.51908C9.01314 3.65409 9.04479 3.90076 8.9698 4.10409L8.73649 4.74076C8.72989 4.76056 8.71903 4.7793 8.70479 4.79484C8.69986 4.80025 8.69449 4.80528 8.68876 4.80984C8.68184 4.81533 8.67439 4.82013 8.66646 4.8241C8.41479 4.9491 8.11315 4.82577 8.01981 4.56409L7.92313 4.29242C7.88647 4.19242 7.76314 4.15409 7.65649 4.23576L7.44982 4.39244C7.3798 4.44576 7.28812 4.46743 7.20479 4.43909C7.09814 4.40409 7.03316 4.3091 7.02815 4.20575L7.00813 3.72577C6.99812 3.51908 7.08813 3.31909 7.24645 3.18575C7.44148 3.02242 7.59981 2.82076 7.67146 2.57577L7.79646 2.14742C7.85815 1.93575 8.00646 1.7591 8.20479 1.66244L8.86149 1.33909C9.03316 1.25409 9.22814 1.22742 9.41646 1.2641L11.4981 1.66408C11.6731 1.6991 11.8498 1.70742 12.0265 1.69076L15.6713 1.76276C18.2862 3.56651 20 6.58319 20 10.0001C20 10.8757 19.8875 11.725 19.6761 12.5343ZM13.6748 8.6141C13.6665 8.70577 13.5815 8.77075 13.4915 8.75576L13.0365 8.6791C12.9415 8.66244 12.8831 8.56742 12.9131 8.47577L13.0198 8.14408C13.0332 8.10409 13.0282 8.0591 13.0081 8.02242L12.7181 7.4741C12.6781 7.39909 12.7048 7.30577 12.7798 7.26243L13.4148 6.90243C13.5048 6.85077 13.6182 6.89909 13.6448 6.99909L13.6665 7.08075C13.6848 7.15243 13.6532 7.22577 13.5881 7.26076L13.4548 7.33075C13.3665 7.37742 13.3431 7.49243 13.4065 7.57076C13.5198 7.70909 13.6765 7.90243 13.6998 7.94409C13.7248 7.99243 13.6948 8.38243 13.6748 8.6141Z" fill="url(#paint2_radial)"/>
<path d="M5.41479 4.79242C5.47481 4.6591 5.6748 4.69743 5.67814 4.8441C5.68314 5.01076 5.85815 5.11576 6.00813 5.04409L6.3398 4.88576C6.46313 4.82741 6.56148 4.72909 6.62312 4.60575V4.60409C6.72314 4.40076 6.70149 4.15743 6.56648 3.97408L5.92313 3.10742C5.81314 2.95909 5.60481 2.92576 5.45312 3.03243L5.29146 3.14742C5.17313 3.23075 5.11315 3.37409 5.13647 3.51575L5.17313 3.74243C5.17557 3.75716 5.17561 3.77189 5.17346 3.78603C5.17122 3.80068 5.16658 3.8147 5.15978 3.82741L4.97814 4.17409C4.86315 4.39575 4.93481 4.66742 5.14481 4.80243L5.2148 4.84741C5.28482 4.89742 5.3798 4.86908 5.41479 4.79242Z" fill="url(#paint3_radial)"/>
<path d="M12.2431 17.1207L12.2998 16.7457C12.3298 16.5524 12.4248 16.3758 12.5714 16.2457L12.8681 15.9824C12.9665 15.8958 13.1215 15.9341 13.1665 16.0574L13.3081 16.4374C13.3398 16.5224 13.3381 16.6157 13.3065 16.6991L12.9948 17.5058C12.9464 17.6308 12.8181 17.7091 12.6848 17.6941C12.4014 17.6624 12.1998 17.4024 12.2431 17.1207Z" fill="url(#paint4_radial)"/>
<defs>
<radialGradient id="paint0_radial" cx="0" cy="0" r="1" gradientUnits="userSpaceOnUse" gradientTransform="translate(10) scale(20.0008)">
<stop stop-color="#42A5F5"/>
<stop offset="0.3522" stop-color="#42A5F5"/>
<stop offset="0.6798" stop-color="#2B8BE2"/>
<stop offset="1" stop-color="#1976D2"/>
</radialGradient>
<radialGradient id="paint1_radial" cx="0" cy="0" r="1" gradientUnits="userSpaceOnUse" gradientTransform="translate(9.44425 1.43796) scale(17.3291)">
<stop stop-color="#AEEA00"/>
<stop offset="0.2373" stop-color="#ADE903"/>
<stop offset="0.3915" stop-color="#A9E40B"/>
<stop offset="0.522" stop-color="#A2DC1A"/>
<stop offset="0.6386" stop-color="#98D12F"/>
<stop offset="0.7459" stop-color="#8BC34A"/>
<stop offset="1" stop-color="#8BC34A"/>
</radialGradient>
<radialGradient id="paint2_radial" cx="0" cy="0" r="1" gradientUnits="userSpaceOnUse" gradientTransform="translate(9.44425 1.43796) scale(17.3291)">
<stop stop-color="#AEEA00"/>
<stop offset="0.2373" stop-color="#ADE903"/>
<stop offset="0.3915" stop-color="#A9E40B"/>
<stop offset="0.522" stop-color="#A2DC1A"/>
<stop offset="0.6386" stop-color="#98D12F"/>
<stop offset="0.7459" stop-color="#8BC34A"/>
<stop offset="1" stop-color="#8BC34A"/>
</radialGradient>
<radialGradient id="paint3_radial" cx="0" cy="0" r="1" gradientUnits="userSpaceOnUse" gradientTransform="translate(9.44425 1.43796) scale(17.3291)">
<stop stop-color="#AEEA00"/>
<stop offset="0.2373" stop-color="#ADE903"/>
<stop offset="0.3915" stop-color="#A9E40B"/>
<stop offset="0.522" stop-color="#A2DC1A"/>
<stop offset="0.6386" stop-color="#98D12F"/>
<stop offset="0.7459" stop-color="#8BC34A"/>
<stop offset="1" stop-color="#8BC34A"/>
</radialGradient>
<radialGradient id="paint4_radial" cx="0" cy="0" r="1" gradientUnits="userSpaceOnUse" gradientTransform="translate(9.44425 1.43796) scale(17.3291)">
<stop stop-color="#AEEA00"/>
<stop offset="0.2373" stop-color="#ADE903"/>
<stop offset="0.3915" stop-color="#A9E40B"/>
<stop offset="0.522" stop-color="#A2DC1A"/>
<stop offset="0.6386" stop-color="#98D12F"/>
<stop offset="0.7459" stop-color="#8BC34A"/>
<stop offset="1" stop-color="#8BC34A"/>
</radialGradient>
</defs>
</svg>
