<svg width="14" height="14" viewBox="0 0 14 14" fill="none" xmlns="http://www.w3.org/2000/svg">
<path d="M10.1188 6.1567C10.3893 5.90697 10.4062 5.48519 10.1565 5.21465C9.90673 4.9441 9.48495 4.92723 9.21441 5.17696C8.47962 5.85523 7.63693 6.69814 6.98192 7.36708C6.73879 7.61539 6.52057 7.84069 6.3421 8.02604L6.31502 7.99768C6.00181 7.67023 5.57022 7.23833 5.1056 6.83178C4.82851 6.58933 4.40733 6.6174 4.16488 6.8945C3.92242 7.17159 3.9505 7.59276 4.22759 7.83522C4.65185 8.20645 5.05361 8.60788 5.3515 8.91931C5.4998 9.07436 5.62093 9.20559 5.70455 9.29757C5.74634 9.34354 5.77868 9.37962 5.80029 9.40388L5.82448 9.43114L5.83021 9.43765L5.83163 9.43926C5.95531 9.58056 6.13284 9.66315 6.32059 9.66671C6.50839 9.67028 6.68923 9.59419 6.81819 9.45764L6.83877 9.4359L6.9004 9.37098C6.95432 9.31427 7.03313 9.23158 7.1323 9.1281C7.33066 8.92111 7.61022 8.6312 7.9346 8.29992C8.58515 7.63552 9.40913 6.81177 10.1188 6.1567Z" fill="#4EBC60"/>
<path fill-rule="evenodd" clip-rule="evenodd" d="M6.99992 0.333496C10.6819 0.333496 13.6666 3.31828 13.6666 7.00016C13.6666 10.682 10.6819 13.6668 6.99992 13.6668C3.31795 13.6668 0.333252 10.682 0.333252 7.00016C0.333252 3.31828 3.31795 0.333496 6.99992 0.333496ZM6.99992 1.66683C4.05444 1.66683 1.66659 4.05461 1.66659 7.00016C1.66659 9.94572 4.05444 12.3335 6.99992 12.3335C9.94539 12.3335 12.3333 9.94572 12.3333 7.00016C12.3333 4.05461 9.94539 1.66683 6.99992 1.66683Z" fill="#4EBC60"/>
</svg>
