<svg width="16" height="16" viewBox="0 0 16 16" fill="none" xmlns="http://www.w3.org/2000/svg">
<path d="M7.33329 5.36588C7.33329 4.99772 7.63179 4.69922 7.99996 4.69922C8.36812 4.69922 8.66663 4.99772 8.66663 5.36588V8.64648C8.66663 8.64648 8.66663 9.33341 7.99996 9.33341C7.44364 9.33341 7.33329 8.7439 7.33329 8.64648V5.36588Z" fill="#FF2D55"/>
<path d="M7.33329 10.6667C7.33329 10.2986 7.63179 10.0001 7.99996 10.0001C8.36812 10.0001 8.66663 10.2986 8.66663 10.6667C8.66663 11.0349 8.36812 11.3334 7.99996 11.3334C7.63179 11.3334 7.33329 11.0349 7.33329 10.6667Z" fill="#FF2D55"/>
<path fill-rule="evenodd" clip-rule="evenodd" d="M14.6666 8.00008C14.6666 4.3182 11.6819 1.33341 7.99996 1.33341C4.31799 1.33341 1.33329 4.3182 1.33329 8.00008C1.33329 11.682 4.31799 14.6667 7.99996 14.6667C11.6819 14.6667 14.6666 11.682 14.6666 8.00008ZM2.66663 8.00008C2.66663 5.05452 5.05448 2.66675 7.99996 2.66675C10.9454 2.66675 13.3333 5.05452 13.3333 8.00008C13.3333 10.9456 10.9454 13.3334 7.99996 13.3334C5.05448 13.3334 2.66663 10.9456 2.66663 8.00008Z" fill="#FF2D55"/>
</svg>
