<svg width="20" height="22" viewBox="0 0 20 22" fill="none" xmlns="http://www.w3.org/2000/svg">
<path fill-rule="evenodd" clip-rule="evenodd" d="M11.3982 0.0827545C11.8054 0.259523 12.0474 0.683592 11.9923 1.12409L11.1328 8.00006H19C19.388 8.00006 19.741 8.22452 19.9056 8.5759C20.0702 8.92729 20.0166 9.34216 19.7682 9.64024L9.76823 21.6402C9.48404 21.9813 9.00903 22.0941 8.60182 21.9174C8.1946 21.7406 7.95267 21.3165 8.00773 20.876L8.86723 14.0001H1.00001C0.611995 14.0001 0.259003 13.7756 0.0944228 13.4242C-0.070157 13.0728 -0.0166119 12.658 0.231791 12.3599L10.2318 0.359872C10.516 0.0188374 10.991 -0.0940143 11.3982 0.0827545ZM3.13505 12.0001H9.43362C10.3359 12.0001 11.0339 12.7908 10.922 13.6861L10.4154 17.7396L16.865 10.0001H10.5664C9.66416 10.0001 8.96608 9.20928 9.07799 8.314L9.58467 4.26051L3.13505 12.0001Z" fill="#18B6FF"/>
</svg>
