<svg width="12" height="14" viewBox="0 0 12 14" fill="#18B6FF" xmlns="http://www.w3.org/2000/svg">
<path d="M6.21271 4.13879L4.66665 2.58524L4.66665 7.66955C4.66665 8.03608 4.37075 8.33329 3.99998 8.33329C3.63182 8.33329 3.33332 8.03674 3.33332 7.66955L3.33332 2.58345L1.78538 4.13879C1.52871 4.39676 1.11489 4.39904 0.857161 4.13993C0.601139 3.88276 0.604801 3.46187 0.8583 3.20731L3.52489 0.527784C3.67332 0.378533 3.87433 0.314894 4.06728 0.337843C4.21605 0.351189 4.3609 0.414829 4.47321 0.527784L7.13979 3.20731C7.39647 3.46512 7.39875 3.88097 7.14093 4.13993C6.88491 4.39725 6.46613 4.39351 6.21271 4.13879Z" fill="#18B6FF"/>
<path d="M10.2127 9.86112L8.66665 11.4147L8.66665 6.33036C8.66665 5.96382 8.37075 5.66662 7.99998 5.66662C7.63182 5.66662 7.33332 5.96317 7.33332 6.33036L7.33332 11.4165L5.78538 9.86112C5.52871 9.60314 5.11489 9.60086 4.85716 9.85998C4.60114 10.1171 4.6048 10.538 4.8583 10.7926L7.52489 13.4721C7.67332 13.6214 7.87433 13.685 8.06729 13.6621C8.21605 13.6487 8.3609 13.5851 8.47321 13.4721L11.1398 10.7926C11.3965 10.5348 11.3987 10.1189 11.1409 9.85998C10.8849 9.60265 10.4661 9.6064 10.2127 9.86112Z" fill="#18B6FF"/>
</svg>
