<svg width="16" height="18" viewBox="0 0 16 18" fill="#18B6FF" xmlns="http://www.w3.org/2000/svg">
<path d="M5 4C4.44772 4 4 4.44772 4 5C4 5.55228 4.44772 6 5 6H11C11.5523 6 12 5.55228 12 5C12 4.44772 11.5523 4 11 4H5Z"/>
<path d="M4 9C4 8.44772 4.44772 8 5 8H11C11.5523 8 12 8.44772 12 9C12 9.55228 11.5523 10 11 10H5C4.44772 10 4 9.55228 4 9Z"/>
<path d="M5 12C4.44772 12 4 12.4477 4 13C4 13.5523 4.44772 14 5 14H11C11.5523 14 12 13.5523 12 13C12 12.4477 11.5523 12 11 12H5Z"/>
<path fill-rule="evenodd" clip-rule="evenodd" d="M3 0C1.34315 0 0 1.34315 0 3V15C0 16.6569 1.34315 18 3 18H13C14.6569 18 16 16.6569 16 15V3C16 1.34315 14.6569 0 13 0H3ZM2 3C2 2.44772 2.44772 2 3 2H13C13.5523 2 14 2.44772 14 3V15C14 15.5523 13.5523 16 13 16H3C2.44772 16 2 15.5523 2 15V3Z"/>
</svg>
