<svg width="21" height="16" viewBox="0 0 21 16" fill="none" xmlns="http://www.w3.org/2000/svg">
<path fill-rule="evenodd" clip-rule="evenodd" d="M0.333328 1.33333C0.333328 0.596954 0.930282 0 1.66666 0C1.66666 0 18.2636 0 19 0C19.7364 0 20.3333 0.596954 20.3333 1.33333C20.3333 2.06971 19.7364 2.66667 19 2.66667H1.66666C0.930282 2.66667 0.333328 2.06971 0.333328 1.33333ZM0.333328 8C0.333328 7.26362 0.930282 6.66667 1.66666 6.66667H19C19.7364 6.66667 20.3333 7.26362 20.3333 8C20.3333 8.73638 19.7364 9.33333 19 9.33333H1.66666C0.930282 9.33333 0.333328 8.73638 0.333328 8ZM1.66666 13.3333C0.930282 13.3333 0.333328 13.9303 0.333328 14.6667C0.333328 15.403 0.930282 16 1.66666 16C1.66666 16 12.9303 16 13.6667 16C14.403 16 15 15.403 15 14.6667C15 13.9303 14.403 13.3333 13.6667 13.3333H1.66666Z" fill="white"/>
</svg>
