<svg width="32" height="32" viewBox="0 0 32 32" fill="#18B6FF" xmlns="http://www.w3.org/2000/svg">
<path fill-rule="evenodd" clip-rule="evenodd" d="M5.33337 9.33333C5.33337 8.59695 5.93033 8 6.66671 8C6.66671 8 23.2637 8 24 8C24.7364 8 25.3334 8.59695 25.3334 9.33333C25.3334 10.0697 24.7364 10.6667 24 10.6667H6.66671C5.93033 10.6667 5.33337 10.0697 5.33337 9.33333ZM5.33337 16C5.33337 15.2636 5.93033 14.6667 6.66671 14.6667H24C24.7364 14.6667 25.3334 15.2636 25.3334 16C25.3334 16.7364 24.7364 17.3333 24 17.3333H6.66671C5.93033 17.3333 5.33337 16.7364 5.33337 16ZM6.66671 21.3333C5.93033 21.3333 5.33337 21.9303 5.33337 22.6667C5.33337 23.403 5.93033 24 6.66671 24C6.66671 24 17.9303 24 18.6667 24C19.4031 24 20 23.403 20 22.6667C20 21.9303 19.4031 21.3333 18.6667 21.3333H6.66671Z" fill="black"/>
</svg>
