<svg width="32" height="32" viewBox="0 0 32 32" fill="none" xmlns="http://www.w3.org/2000/svg">
<path fill-rule="evenodd" clip-rule="evenodd" d="M5.33325 9.33333C5.33325 8.59695 5.93021 8 6.66659 8C6.66659 8 23.2635 8 23.9999 8C24.7363 8 25.3333 8.59695 25.3333 9.33333C25.3333 10.0697 24.7363 10.6667 23.9999 10.6667H6.66659C5.93021 10.6667 5.33325 10.0697 5.33325 9.33333ZM5.33325 16C5.33325 15.2636 5.93021 14.6667 6.66659 14.6667H23.9999C24.7363 14.6667 25.3333 15.2636 25.3333 16C25.3333 16.7364 24.7363 17.3333 23.9999 17.3333H6.66659C5.93021 17.3333 5.33325 16.7364 5.33325 16ZM6.66659 21.3333C5.93021 21.3333 5.33325 21.9303 5.33325 22.6667C5.33325 23.403 5.93021 24 6.66659 24C6.66659 24 17.9302 24 18.6666 24C19.403 24 19.9999 23.403 19.9999 22.6667C19.9999 21.9303 19.403 21.3333 18.6666 21.3333H6.66659Z" fill="white"/>
</svg>
