<svg width="21" height="16" viewBox="0 0 21 16" fill="none" xmlns="http://www.w3.org/2000/svg">
<path fill-rule="evenodd" clip-rule="evenodd" d="M0.333313 1.33333C0.333313 0.596954 0.930267 0 1.66665 0C1.66665 0 18.2636 0 19 0C19.7364 0 20.3333 0.596954 20.3333 1.33333C20.3333 2.06971 19.7364 2.66667 19 2.66667H1.66665C0.930267 2.66667 0.333313 2.06971 0.333313 1.33333ZM0.333313 8C0.333313 7.26362 0.930267 6.66667 1.66665 6.66667H19C19.7364 6.66667 20.3333 7.26362 20.3333 8C20.3333 8.73638 19.7364 9.33333 19 9.33333H1.66665C0.930267 9.33333 0.333313 8.73638 0.333313 8ZM1.66665 13.3333C0.930267 13.3333 0.333313 13.9303 0.333313 14.6667C0.333313 15.403 0.930267 16 1.66665 16C1.66665 16 12.9303 16 13.6666 16C14.403 16 15 15.403 15 14.6667C15 13.9303 14.403 13.3333 13.6666 13.3333H1.66665Z" fill="black"/>
</svg>
