<svg width="14" height="14" viewBox="0 0 14 14" fill="none" xmlns="http://www.w3.org/2000/svg">
<path d="M6.33341 4.36576C6.33341 3.9976 6.63192 3.6991 7.00008 3.6991C7.36825 3.6991 7.66675 3.9976 7.66675 4.36576V7.64636C7.66675 7.64636 7.66675 8.33329 7.00008 8.33329C6.44377 8.33329 6.33341 7.74377 6.33341 7.64636V4.36576Z" fill="#939BA1"/>
<path d="M6.33341 9.66663C6.33341 9.29846 6.63192 8.99996 7.00008 8.99996C7.36825 8.99996 7.66675 9.29846 7.66675 9.66663C7.66675 10.0348 7.36825 10.3333 7.00008 10.3333C6.63192 10.3333 6.33341 10.0348 6.33341 9.66663Z" fill="#939BA1"/>
<path fill-rule="evenodd" clip-rule="evenodd" d="M13.6667 6.99996C13.6667 3.31807 10.682 0.333292 7.00008 0.333292C3.31812 0.333292 0.333414 3.31807 0.333414 6.99996C0.333414 10.6818 3.31812 13.6666 7.00008 13.6666C10.682 13.6666 13.6667 10.6818 13.6667 6.99996ZM1.66675 6.99996C1.66675 4.0544 4.05461 1.66663 7.00008 1.66663C9.94556 1.66663 12.3334 4.0544 12.3334 6.99996C12.3334 9.94552 9.94556 12.3333 7.00008 12.3333C4.05461 12.3333 1.66675 9.94552 1.66675 6.99996Z" fill="#939BA1"/>
</svg>
