<svg width="24" height="18" viewBox="0 0 24 18" fill="none" xmlns="http://www.w3.org/2000/svg">
<rect width="24" height="18" rx="4" fill="#939BA1" fill-opacity="0.4"/>
<rect opacity="0.2" y="6" width="24" height="6" fill="black"/>
<rect y="12" width="24" height="6" fill="black" fill-opacity="0.1"/>
<rect opacity="0.4" width="24" height="6" fill="black"/>
<path d="M12.7785 12.9375C12.7785 13.3517 12.4427 13.6875 12.0285 13.6875H11.6535C11.2393 13.6875 10.9035 13.3517 10.9035 12.9375V12.5625C10.9035 12.1483 11.2393 11.8125 11.6535 11.8125H12.0285C12.4427 11.8125 12.7785 12.1483 12.7785 12.5625V12.9375Z" fill="white"/>
<path d="M10.7803 6.43934C11.0526 6.16707 11.4266 6 11.841 6C12.6694 6 13.341 6.67157 13.341 7.5C13.341 8.32843 12.6694 9 11.841 9C11.4268 9 11.091 9.33579 11.091 9.75C11.091 10.1642 11.4268 10.5 11.841 10.5C13.4978 10.5 14.841 9.15685 14.841 7.5C14.841 5.84315 13.4978 4.5 11.841 4.5C11.0128 4.5 10.2617 4.83661 9.71967 5.37868C9.42678 5.67157 9.42678 6.14645 9.71967 6.43934C10.0126 6.73223 10.4874 6.73223 10.7803 6.43934Z" fill="white"/>
</svg>
