<svg width="16" height="13" viewBox="0 0 16 13" fill="none" xmlns="http://www.w3.org/2000/svg">
<path d="M8.74675 0.373475L5.05341 4.06681C4.80675 4.31348 4.66675 4.65348 4.66675 5.00681V11.6668C4.66675 12.4001 5.26675 13.0001 6.00008 13.0001H12.0001C12.5334 13.0001 13.0134 12.6801 13.2267 12.1935L15.4001 7.12014C15.9601 5.80014 14.9934 4.33348 13.5601 4.33348H9.79341L10.4267 1.28014C10.4934 0.946809 10.3934 0.606809 10.1534 0.366809C9.76008 -0.0198579 9.13341 -0.0198579 8.74675 0.373475ZM2.00008 13.0001C2.73341 13.0001 3.33341 12.4001 3.33341 11.6668V6.33347C3.33341 5.60014 2.73341 5.00014 2.00008 5.00014C1.26675 5.00014 0.666748 5.60014 0.666748 6.33347V11.6668C0.666748 12.4001 1.26675 13.0001 2.00008 13.0001Z" fill="#939BA1"/>
</svg>
