<svg width="12" height="12" viewBox="0 0 12 12" fill="none" xmlns="http://www.w3.org/2000/svg">
<path fill-rule="evenodd" clip-rule="evenodd" d="M4 2C3.17157 2 2.5 2.67157 2.5 3.5C2.5 4.32843 3.17157 5 4 5C4.82843 5 5.5 4.32843 5.5 3.5C5.5 2.67157 4.82843 2 4 2ZM1.5 3.5C1.5 2.11929 2.61929 1 4 1C5.38071 1 6.5 2.11929 6.5 3.5C6.5 4.88071 5.38071 6 4 6C2.61929 6 1.5 4.88071 1.5 3.5ZM2.5 8C1.94772 8 1.5 8.44772 1.5 9V10C1.5 10.2761 1.27614 10.5 1 10.5C0.723858 10.5 0.5 10.2761 0.5 10V9C0.5 7.89543 1.39543 7 2.5 7H5.5C6.60457 7 7.5 7.89543 7.5 9V10C7.5 10.2761 7.27614 10.5 7 10.5C6.72386 10.5 6.5 10.2761 6.5 10V9C6.5 8.44772 6.05228 8 5.5 8H2.5Z" fill="white"/>
<path fill-rule="evenodd" clip-rule="evenodd" d="M11.3536 4.14645C11.5488 4.34171 11.5488 4.65829 11.3536 4.85355L9.35355 6.85355C9.15829 7.04882 8.84171 7.04882 8.64645 6.85355L7.64645 5.85355C7.45118 5.65829 7.45118 5.34171 7.64645 5.14645C7.84171 4.95118 8.15829 4.95118 8.35355 5.14645L9 5.79289L10.6464 4.14645C10.8417 3.95118 11.1583 3.95118 11.3536 4.14645Z" fill="white"/>
</svg>
