<svg width="18" height="18" viewBox="0 0 18 18" fill="none" xmlns="http://www.w3.org/2000/svg">
<path d="M0 6.31994C0 4.39494 1.371 2.74294 3.263 2.38894L14.816 0.221939C15.431 0.106939 16 0.578939 16 1.20494V2.99994C16 3.55294 15.552 3.99994 15 3.99994H3.618C3.239 3.99994 2.893 4.21394 2.724 4.55294L2.5 4.99994C2.27 5.45994 2.604 5.99994 3.118 5.99994H17C17.552 5.99994 18 6.44794 18 6.99994V16.9999C18 17.5529 17.552 17.9999 17 17.9999H4C1.791 17.9999 0 16.2099 0 13.9999V6.31994ZM13 11.9999C13 12.8289 13.672 13.4999 14.5 13.4999C15.328 13.4999 16 12.8289 16 11.9999C16 11.1719 15.328 10.4999 14.5 10.4999C13.672 10.4999 13 11.1719 13 11.9999Z" fill="#18B6FF"/>
</svg>
