<svg width="60" height="60" viewBox="0 0 60 60" fill="none" xmlns="http://www.w3.org/2000/svg">
<path opacity="0.1" d="M19.4561 4.36743L4.36742 19.4561C-1.45581 25.2793 -1.45581 34.7207 4.36742 40.5439L19.4561 55.6326C25.2793 61.4558 34.7207 61.4558 40.5439 55.6326L55.6326 40.5439C61.4558 34.7207 61.4558 25.2793 55.6326 19.4561L40.5439 4.36742C34.7207 -1.45581 25.2793 -1.45581 19.4561 4.36743Z" fill="#18B6FF"/>
<path fill-rule="evenodd" clip-rule="evenodd" d="M31.8643 15.4436C32.4072 15.6793 32.7298 16.2447 32.6564 16.832L31.5104 26H42C42.5174 26 42.988 26.2993 43.2075 26.7678C43.4269 27.2363 43.3555 27.7895 43.0243 28.1869L29.691 44.1869C29.312 44.6416 28.6787 44.7921 28.1357 44.5564C27.5928 44.3207 27.2702 43.7553 27.3436 43.168L28.4896 34H18C17.4826 34 17.012 33.7007 16.7926 33.2322C16.5731 32.7637 16.6445 32.2105 16.9757 31.8131L30.309 15.8131C30.688 15.3584 31.3213 15.2079 31.8643 15.4436ZM20.8467 31.3333H29.2448C30.4478 31.3333 31.3786 32.3877 31.2294 33.5814L30.5538 38.9861L39.1533 28.6667H30.7552C29.5522 28.6667 28.6214 27.6123 28.7706 26.4186L29.4462 21.0139L20.8467 31.3333Z" fill="#18B6FF"/>
</svg>
