<svg width="80" height="80" viewBox="0 0 80 80" fill="none" xmlns="http://www.w3.org/2000/svg">
<path d="M29.4764 11.7325L14.372 27.1108C8.54267 33.0458 8.54267 42.6684 14.372 48.6034L29.4764 63.9817C35.3058 69.9167 44.7569 69.9167 50.5863 63.9817L65.6907 48.6034C71.52 42.6684 71.52 33.0458 65.6907 27.1108L50.5863 11.7325C44.7569 5.7975 35.3058 5.7975 29.4764 11.7325Z" fill="#18B6FF"/>
<path d="M46.0717 23C47.7285 23 49.0717 24.3431 49.0717 26C49.0717 27.6569 47.7285 29 46.0717 29C44.4148 29 43.0717 27.6569 43.0717 26C43.0717 24.3431 44.4148 23 46.0717 23Z" fill="white"/>
<path d="M34 23C35.6569 23 37 24.3431 37 26C37 27.6569 35.6569 29 34 29C32.3431 29 31 27.6569 31 26C31 24.3431 32.3431 23 34 23Z" fill="white"/>
<path fill-rule="evenodd" clip-rule="evenodd" d="M45.0717 26C45.0717 26.5523 44.6239 27 44.0717 27L36.0717 27C35.5194 27 35.0717 26.5523 35.0717 26C35.0717 25.4477 35.5194 25 36.0717 25L44.0717 25C44.6239 25 45.0717 25.4477 45.0717 26Z" fill="white"/>
<path d="M46.0717 47C47.7285 47 49.0717 48.3431 49.0717 50C49.0717 51.6569 47.7285 53 46.0717 53C44.4148 53 43.0717 51.6569 43.0717 50C43.0717 48.3431 44.4148 47 46.0717 47Z" fill="white"/>
<path d="M34 47C35.6569 47 37 48.3431 37 50C37 51.6569 35.6569 53 34 53C32.3431 53 31 51.6569 31 50C31 48.3431 32.3431 47 34 47Z" fill="white"/>
<path fill-rule="evenodd" clip-rule="evenodd" d="M45.0717 50C45.0717 50.5523 44.6239 51 44.0717 51L36.0717 51C35.5194 51 35.0717 50.5523 35.0717 50C35.0717 49.4477 35.5194 49 36.0717 49L44.0717 49C44.6239 49 45.0717 49.4477 45.0717 50Z" fill="white"/>
<path d="M32.0717 35C33.7285 35 35.0717 36.3431 35.0717 38C35.0717 39.6569 33.7285 41 32.0717 41C30.4148 41 29.0717 39.6569 29.0717 38C29.0717 36.3431 30.4148 35 32.0717 35Z" fill="white"/>
<path d="M20 35C21.6569 35 23 36.3431 23 38C23 39.6569 21.6569 41 20 41C18.3431 41 17 39.6569 17 38C17 36.3431 18.3431 35 20 35Z" fill="white"/>
<path fill-rule="evenodd" clip-rule="evenodd" d="M31.0717 38C31.0717 38.5523 30.6239 39 30.0717 39L22.0717 39C21.5194 39 21.0717 38.5523 21.0717 38C21.0717 37.4477 21.5194 37 22.0717 37L30.0717 37C30.6239 37 31.0717 37.4477 31.0717 38Z" fill="white"/>
<path d="M60.0717 35C61.7285 35 63.0717 36.3431 63.0717 38C63.0717 39.6569 61.7285 41 60.0717 41C58.4148 41 57.0717 39.6569 57.0717 38C57.0717 36.3431 58.4148 35 60.0717 35Z" fill="white"/>
<path d="M48 35C49.6569 35 51 36.3431 51 38C51 39.6569 49.6569 41 48 41C46.3431 41 45 39.6569 45 38C45 36.3431 46.3431 35 48 35Z" fill="white"/>
<path fill-rule="evenodd" clip-rule="evenodd" d="M59.0717 38C59.0717 38.5523 58.6239 39 58.0717 39L50.0717 39C49.5194 39 49.0717 38.5523 49.0717 38C49.0717 37.4477 49.5194 37 50.0717 37L58.0717 37C58.6239 37 59.0717 37.4477 59.0717 38Z" fill="white"/>
</svg>
