<svg width="61" height="62" viewBox="0 0 61 62" fill="none" xmlns="http://www.w3.org/2000/svg">
<path d="M19.4764 4.73251L4.37199 20.1108C-1.45733 26.0458 -1.45733 35.6684 4.37199 41.6034L19.4764 56.9817C25.3058 62.9167 34.7569 62.9167 40.5863 56.9817L55.6907 41.6034C61.52 35.6684 61.52 26.0458 55.6907 20.1108L40.5863 4.73251C34.7569 -1.2025 25.3058 -1.2025 19.4764 4.73251Z" fill="#18B6FF"/>
<path d="M36.0717 16C37.7285 16 39.0717 17.3431 39.0717 19C39.0717 20.6569 37.7285 22 36.0717 22C34.4148 22 33.0717 20.6569 33.0717 19C33.0717 17.3431 34.4148 16 36.0717 16Z" fill="white"/>
<path d="M24 16C25.6569 16 27 17.3431 27 19C27 20.6569 25.6569 22 24 22C22.3431 22 21 20.6569 21 19C21 17.3431 22.3431 16 24 16Z" fill="white"/>
<path fill-rule="evenodd" clip-rule="evenodd" d="M35.0717 19C35.0717 19.5523 34.6239 20 34.0717 20L26.0717 20C25.5194 20 25.0717 19.5523 25.0717 19C25.0717 18.4477 25.5194 18 26.0717 18L34.0717 18C34.6239 18 35.0717 18.4477 35.0717 19Z" fill="white"/>
<path d="M36.0717 40C37.7285 40 39.0717 41.3431 39.0717 43C39.0717 44.6569 37.7285 46 36.0717 46C34.4148 46 33.0717 44.6569 33.0717 43C33.0717 41.3431 34.4148 40 36.0717 40Z" fill="white"/>
<path d="M24 40C25.6569 40 27 41.3431 27 43C27 44.6569 25.6569 46 24 46C22.3431 46 21 44.6569 21 43C21 41.3431 22.3431 40 24 40Z" fill="white"/>
<path fill-rule="evenodd" clip-rule="evenodd" d="M35.0717 43C35.0717 43.5523 34.6239 44 34.0717 44L26.0717 44C25.5194 44 25.0717 43.5523 25.0717 43C25.0717 42.4477 25.5194 42 26.0717 42L34.0717 42C34.6239 42 35.0717 42.4477 35.0717 43Z" fill="white"/>
<path d="M22.0717 28C23.7285 28 25.0717 29.3431 25.0717 31C25.0717 32.6569 23.7285 34 22.0717 34C20.4148 34 19.0717 32.6569 19.0717 31C19.0717 29.3431 20.4148 28 22.0717 28Z" fill="white"/>
<path d="M10 28C11.6569 28 13 29.3431 13 31C13 32.6569 11.6569 34 10 34C8.34315 34 7 32.6569 7 31C7 29.3431 8.34315 28 10 28Z" fill="white"/>
<path fill-rule="evenodd" clip-rule="evenodd" d="M21.0717 31C21.0717 31.5523 20.6239 32 20.0717 32L12.0717 32C11.5194 32 11.0717 31.5523 11.0717 31C11.0717 30.4477 11.5194 30 12.0717 30L20.0717 30C20.6239 30 21.0717 30.4477 21.0717 31Z" fill="white"/>
<path d="M50.0717 28C51.7285 28 53.0717 29.3431 53.0717 31C53.0717 32.6569 51.7285 34 50.0717 34C48.4148 34 47.0717 32.6569 47.0717 31C47.0717 29.3431 48.4148 28 50.0717 28Z" fill="white"/>
<path d="M38 28C39.6569 28 41 29.3431 41 31C41 32.6569 39.6569 34 38 34C36.3431 34 35 32.6569 35 31C35 29.3431 36.3431 28 38 28Z" fill="white"/>
<path fill-rule="evenodd" clip-rule="evenodd" d="M49.0717 31C49.0717 31.5523 48.6239 32 48.0717 32L40.0717 32C39.5194 32 39.0717 31.5523 39.0717 31C39.0717 30.4477 39.5194 30 40.0717 30L48.0717 30C48.6239 30 49.0717 30.4477 49.0717 31Z" fill="white"/>
</svg>
