<svg width="80" height="80" viewBox="0 0 80 80" fill="none" xmlns="http://www.w3.org/2000/svg">
<path d="M29.6594 13.7326L14.5549 29.1109C8.72559 35.0459 8.72559 44.6685 14.5549 50.6035L29.6594 65.9818C35.4887 71.9168 44.9399 71.9168 50.7692 65.9818L65.8736 50.6035C71.703 44.6685 71.703 35.0459 65.8736 29.1109L50.7692 13.7326C44.9399 7.79756 35.4887 7.79756 29.6594 13.7326Z" fill="#FA883E"/>
<path fill-rule="evenodd" clip-rule="evenodd" d="M43.878 50.6452H52.9355C54.0916 50.6452 55 49.7368 55 48.5806V39.5231L52.9355 41.5876V48.5806H52.8942H45.9425L43.878 50.6452ZM52.9355 33.1024V30.0645H25.0645V48.5806H37.4572L35.4798 50.5581C35.4511 50.5868 35.4233 50.6158 35.3965 50.6452H25.0645C23.9084 50.6452 23 49.7368 23 48.5806V30.0645C23 28.9084 23.9084 28 25.0645 28H52.8942C54.0503 28 54.9587 28.9084 55 30.0645V31.0378L52.9355 33.1024ZM37.0821 53.1981C36.6916 52.8075 36.6072 52.2588 36.8937 51.9723L58.7305 30.1355C59.0169 29.849 59.5657 29.9334 59.9562 30.3239C60.3468 30.7145 60.4311 31.2633 60.1447 31.5497L38.3079 53.3865C38.0214 53.673 37.4726 53.5886 37.0821 53.1981ZM29.3174 45.4749C28.7393 45.4749 28.2852 45.0207 28.2852 44.4426C28.2852 42.502 29.4 40.7678 31.0516 39.9007C30.2258 39.1988 29.689 38.1665 29.689 37.0104C29.689 34.9046 31.3819 33.2117 33.4877 33.2117C35.5935 33.2117 37.2864 34.9046 37.2864 37.0104C37.2864 38.1665 36.7497 39.1988 35.9239 39.9007C37.5755 40.7678 38.6903 42.4607 38.6903 44.4426C38.6903 45.0207 38.2361 45.4749 37.6581 45.4749C37.08 45.4749 36.6258 45.0207 36.6258 44.4426C36.6258 42.7084 35.2219 41.3046 33.4877 41.3046C31.7535 41.3046 30.3497 42.7084 30.3497 44.4426C30.3497 45.0207 29.8955 45.4749 29.3174 45.4749ZM35.1806 37.0104C35.1806 36.0607 34.3961 35.2762 33.4464 35.2762C32.4968 35.2762 31.7123 36.0607 31.7123 37.0104C31.7123 37.9601 32.4968 38.7446 33.4464 38.7446C34.3961 38.7446 35.1806 37.9601 35.1806 37.0104ZM41.5791 40H45.7025L43.638 42.0645H41.5791C41.0011 42.0645 40.5469 41.6103 40.5469 41.0323C40.5469 40.4542 41.0011 40 41.5791 40ZM49.4485 36.254C49.4003 36.2473 49.3508 36.2439 49.3004 36.2439H41.5791C41.0011 36.2439 40.5469 36.6981 40.5469 37.2762C40.5469 37.8542 41.0011 38.3084 41.5791 38.3084H47.3942L49.4485 36.254Z" fill="white"/>
</svg>
