<svg width="81" height="31" viewBox="0 0 81 31" fill="none" xmlns="http://www.w3.org/2000/svg">
<path fill-rule="evenodd" clip-rule="evenodd" d="M17.8085 15.0551C15.9821 15.1601 14.8376 14.7358 13.0109 14.841C12.5579 14.8664 12.108 14.9319 11.6665 15.0367C11.9362 11.6682 14.3268 8.72153 17.5777 8.53423C19.5727 8.41944 21.5667 9.64771 21.6748 11.6417C21.7813 13.6014 20.2828 14.9125 17.8088 15.0549L17.8085 15.0551ZM12.904 21.9452C10.9929 22.0528 9.08294 20.903 8.97922 19.0371C8.87722 17.2029 10.3131 15.9759 12.6831 15.8427C14.4325 15.7443 15.5292 16.1415 17.2786 16.043C17.7124 16.0193 18.1433 15.958 18.5665 15.8599C18.3087 19.0123 16.0185 21.7702 12.904 21.9452ZM15.2382 0.000245798C6.82228 -3.17627e-09 0 6.80305 0 15.1955C0 23.5879 6.82228 30.3909 15.2382 30.3909C23.6541 30.3909 30.4764 23.5876 30.4764 15.1955C30.4764 6.8033 23.6541 0 15.2382 0" fill="#4360DF"/>
<path fill-rule="evenodd" clip-rule="evenodd" d="M37.358 17.4346H39.684C39.684 17.7761 39.7951 18.0211 40.0173 18.1698C40.2397 18.3186 40.5251 18.393 40.8736 18.393C41.1616 18.393 41.3976 18.3444 41.5821 18.2465C41.7665 18.1487 41.8586 17.9884 41.8586 17.7653C41.8586 17.6335 41.8193 17.5253 41.7412 17.4413C41.6628 17.3572 41.5428 17.282 41.3811 17.2161C41.1778 17.1354 40.9714 17.0626 40.7625 16.9979L39.8506 16.7078C39.5481 16.6105 39.2486 16.5036 38.9528 16.3873C38.6726 16.2767 38.4264 16.1385 38.2143 15.9736C38.0053 15.8128 37.8355 15.6066 37.7178 15.3707C37.5991 15.1337 37.5398 14.84 37.5398 14.4897C37.5398 14.0876 37.6183 13.74 37.7746 13.446C37.9307 13.1529 38.1573 12.9032 38.434 12.7194C38.7166 12.5287 39.0553 12.3856 39.449 12.2905C39.8433 12.1951 40.2776 12.1475 40.7524 12.1475C41.3334 12.1475 41.8333 12.2143 42.2526 12.3483C42.6717 12.4825 43.0153 12.6654 43.2832 12.8972C43.5506 13.1292 43.7489 13.4023 43.8779 13.7167C44.0067 14.031 44.0711 14.3685 44.0711 14.7294H41.7299C41.7299 14.4147 41.6502 14.1702 41.491 13.9949C41.3319 13.8196 41.0908 13.7319 40.7676 13.7319C40.5201 13.7319 40.308 13.7874 40.1311 13.8983C39.9541 14.0089 39.8659 14.1753 39.8659 14.3968C39.8659 14.5455 39.9077 14.6647 39.9912 14.7542C40.0748 14.8437 40.1974 14.9245 40.3592 14.9961C40.5214 15.0678 40.7209 15.1423 40.9589 15.219L41.7763 15.4835C42.1093 15.571 42.42 15.6678 42.7078 15.7748C42.9954 15.8817 43.2492 16.0117 43.4687 16.1646C43.6849 16.3135 43.8638 16.5103 43.9915 16.7398C44.1203 16.9703 44.1847 17.2631 44.1847 17.6173C44.1847 18.085 44.0937 18.4832 43.9119 18.8121C43.7358 19.1344 43.4851 19.4098 43.1807 19.6152C42.8752 19.8216 42.5203 19.9698 42.1162 20.0596C41.7122 20.1493 41.2879 20.194 40.8433 20.194C39.7373 20.194 38.8796 19.9583 38.271 19.4868C37.6622 19.0154 37.358 18.3311 37.358 17.4344V17.4346ZM44.4285 14.2542V12.4572H45.5836V10.197H47.9318V12.4572H49.6122V14.2545H47.9318V16.962C47.9318 17.2432 47.9569 17.4668 48.0068 17.633C48.0566 17.7992 48.1279 17.9297 48.2206 18.0241C48.312 18.1182 48.4297 18.1824 48.5583 18.2082C48.7052 18.2377 48.8548 18.2518 49.0046 18.2502C49.1044 18.2502 49.2322 18.2465 49.3873 18.2387C49.5421 18.2313 49.6773 18.217 49.7923 18.1964V20.0694C49.5746 20.1061 49.3557 20.1348 49.1359 20.1552C48.8734 20.1812 48.5644 20.1943 48.2093 20.1943C47.9176 20.193 47.6263 20.1725 47.3373 20.1328C47.0325 20.092 46.7414 19.9809 46.4869 19.8084C46.2259 19.6338 46.0101 19.3649 45.8397 19.0026C45.6689 18.6401 45.5836 18.1423 45.5836 17.5099V14.2542H44.4285ZM52.7168 16.4106C52.7168 16.6744 52.7623 16.9266 52.853 17.1672C52.9434 17.4076 53.068 17.6146 53.2258 17.7879C53.387 17.9635 53.581 18.1058 53.7968 18.207C54.0194 18.3131 54.2682 18.366 54.5427 18.366C54.817 18.366 55.0672 18.3131 55.2923 18.207C55.5179 18.1008 55.7094 17.9612 55.8674 17.7879C56.0255 17.6148 56.1496 17.4093 56.2403 17.1709C56.3319 16.928 56.3781 16.6703 56.3764 16.4106C56.3781 16.156 56.3319 15.9034 56.2403 15.6659C56.1531 15.4388 56.0269 15.2286 55.8674 15.045C55.7094 14.864 55.5148 14.7185 55.2965 14.6183C55.0736 14.515 54.8222 14.4632 54.5427 14.4632C54.2682 14.4632 54.0194 14.5148 53.7968 14.618C53.5784 14.7184 53.3838 14.8639 53.2258 15.045C53.0664 15.2286 52.9402 15.4388 52.853 15.6659C52.7614 15.9034 52.7152 16.156 52.7168 16.4106ZM50.2799 16.4106C50.2799 15.8364 50.3724 15.3035 50.5574 14.8122C50.7423 14.3206 50.9998 13.8978 51.3309 13.5436C51.6596 13.1907 52.0536 12.9049 52.491 12.7017C52.9338 12.4948 53.4131 12.3913 53.929 12.3913C54.5039 12.3913 55.0026 12.513 55.4246 12.7558C55.8468 12.9992 56.1641 13.3069 56.3764 13.6793V12.5852H58.8133V20.2439H56.3764V19.1651C56.1847 19.5166 55.8763 19.8167 55.4518 20.065C55.0271 20.3132 54.5194 20.4376 53.929 20.4376C53.4185 20.4376 52.9405 20.3341 52.4951 20.1272C52.0553 19.9243 51.6597 19.637 51.3309 19.2814C51.0001 18.9245 50.7423 18.5004 50.5574 18.0088C50.3724 17.5175 50.2799 16.9846 50.2799 16.4104V16.4106ZM59.4611 14.254V12.4572H60.6163V10.197H62.9644V12.4572H64.6448V14.2545H62.9644V16.962C62.9644 17.2432 62.9895 17.4668 63.0394 17.633C63.0893 17.7992 63.1606 17.9297 63.2532 18.0241C63.3446 18.1182 63.4624 18.1824 63.5909 18.2082C63.7378 18.2378 63.8874 18.2519 64.0373 18.2502C64.137 18.2502 64.2649 18.2465 64.4199 18.2387C64.5748 18.2313 64.71 18.217 64.825 18.1964V20.0694C64.6073 20.1061 64.3883 20.1348 64.1685 20.1552C63.906 20.1812 63.5971 20.1943 63.2419 20.1943C62.9502 20.193 62.6589 20.1725 62.3699 20.1328C62.0652 20.092 61.774 19.9809 61.5195 19.8084C61.2585 19.6338 61.0427 19.3649 60.8724 19.0026C60.7016 18.6401 60.6163 18.1423 60.6163 17.5099V14.2542H59.4611V14.254ZM65.64 17.1094V12.5915H68.0297V16.4929C68.0297 17.0378 68.1261 17.481 68.319 17.8229C68.5117 18.1646 68.8568 18.3357 69.3542 18.3357C69.8517 18.3357 70.2186 18.1621 70.4546 17.8151C70.6905 17.4682 70.8085 16.9992 70.8085 16.4081V12.5915H73.1982V20.2016H70.8085V19.1144C70.6006 19.5153 70.2833 19.8289 69.8568 20.0551C69.4307 20.2812 68.9204 20.3943 68.3266 20.3943C67.8046 20.3943 67.3762 20.3119 67.041 20.1475C66.7057 19.983 66.4332 19.7751 66.2233 19.5231C65.9829 19.2299 65.8256 18.8907 65.7514 18.5055C65.6771 18.1196 65.64 17.6546 65.64 17.1096V17.1094ZM74.1734 17.4346H76.4994C76.4994 17.7761 76.6105 18.0211 76.8327 18.1698C77.0549 18.3186 77.3405 18.393 77.689 18.393C77.9771 18.393 78.213 18.3444 78.3973 18.2465C78.5817 18.1487 78.6741 17.9884 78.6741 17.7653C78.6741 17.6335 78.6348 17.5253 78.5566 17.4413C78.4782 17.3572 78.3583 17.282 78.1965 17.2161C77.9932 17.1354 77.7869 17.0626 77.5779 16.9979L76.6661 16.7078C76.3635 16.6104 76.0641 16.5036 75.7683 16.3873C75.4881 16.2767 75.2416 16.1385 75.0297 15.9736C74.8207 15.8128 74.6509 15.6066 74.5332 15.3707C74.4145 15.1337 74.3553 14.84 74.3553 14.4897C74.3553 14.0876 74.4334 13.74 74.59 13.446C74.7461 13.1529 74.9727 12.9032 75.2494 12.7194C75.5321 12.5287 75.8707 12.3856 76.2645 12.2905C76.6585 12.1951 77.0928 12.1475 77.5678 12.1475C78.1486 12.1475 78.6488 12.2143 79.0681 12.3483C79.4871 12.4825 79.8307 12.6654 80.0986 12.8972C80.366 13.1292 80.5644 13.4023 80.6934 13.7167C80.8219 14.031 80.8866 14.3685 80.8866 14.7294H78.5453C78.5453 14.4147 78.4657 14.1702 78.3064 13.9949C78.1474 13.8196 77.906 13.7319 77.5828 13.7319C77.3353 13.7319 77.1232 13.7874 76.9463 13.8983C76.7696 14.0089 76.6813 14.1753 76.6813 14.3968C76.6813 14.5455 76.7231 14.6647 76.8067 14.7542C76.8902 14.8437 77.0126 14.9245 77.1746 14.9961C77.3368 15.0678 77.5361 15.1423 77.774 15.219L78.5917 15.4835C78.9068 15.5652 79.2177 15.6625 79.5232 15.7748C79.8108 15.8817 80.0647 16.0117 80.2842 16.1646C80.5004 16.3135 80.6793 16.5104 80.8069 16.7398C80.9357 16.9703 81.0001 17.2631 81.0001 17.6173C81.0001 18.085 80.9092 18.4832 80.7273 18.8121C80.5513 19.1345 80.3006 19.4099 79.9961 19.6152C79.6906 19.8216 79.3357 19.9698 78.9317 20.0596C78.5274 20.1493 78.1034 20.194 77.6588 20.194C76.5528 20.194 75.695 19.9583 75.0865 19.4868C74.4777 19.0154 74.1734 18.3311 74.1734 17.4344" fill="black"/>
</svg>
