<svg width="111" height="111" viewBox="0 0 111 111" fill="none" xmlns="http://www.w3.org/2000/svg">
<path fill-rule="evenodd" clip-rule="evenodd" d="M64.8616 54.9874C58.2097 55.3707 54.0409 53.8212 47.388 54.2054C45.738 54.2981 44.0994 54.5372 42.4915 54.92C43.4735 42.617 52.1807 31.8546 64.021 31.1705C71.2871 30.7512 78.5495 35.2374 78.9434 42.5201C79.331 49.678 73.8732 54.4667 64.8625 54.9865L64.8616 54.9874ZM46.9986 80.1527C40.0379 80.5459 33.0816 76.3462 32.7038 69.5312C32.3323 62.8321 37.5619 58.3504 46.1939 57.8638C52.5657 57.5047 56.5599 58.9555 62.9316 58.5955C64.5115 58.5089 66.0809 58.2851 67.6223 57.9267C66.6833 69.4405 58.3421 79.5135 46.9986 80.1527ZM55.5 0.000897756C24.8479 -1.1601e-08 0 24.8475 0 55.5C0 86.1525 24.8479 111 55.5 111C86.1521 111 111 86.1516 111 55.5C111 24.8484 86.1521 0 55.5 0" fill="#4360DF"/>
</svg>
