<svg width="60" height="60" viewBox="0 0 60 60" fill="none" xmlns="http://www.w3.org/2000/svg">
<path opacity="0.1" d="M19.4561 4.36743L4.36742 19.4561C-1.45581 25.2793 -1.45581 34.7207 4.36742 40.5439L19.4561 55.6326C25.2793 61.4558 34.7207 61.4558 40.5439 55.6326L55.6326 40.5439C61.4558 34.7207 61.4558 25.2793 55.6326 19.4561L40.5439 4.36742C34.7207 -1.45581 25.2793 -1.45581 19.4561 4.36743Z" fill="#18B6FF"/>
<path d="M18.309 22.8536C17.897 22.3591 17.897 21.6409 18.309 21.1464L21.6424 17.1464C22.1138 16.5807 22.9545 16.5043 23.5202 16.9757C24.0859 17.4471 24.1624 18.2879 23.691 18.8536L22.18 20.6667L35.3333 20.6667C35.3337 20.6667 35.333 20.6667 35.3333 20.6667C39.0148 20.6673 42 23.6518 42 27.3334C42 28.0698 41.403 28.6667 40.6667 28.6667C39.9303 28.6667 39.3333 28.0698 39.3333 27.3334C39.3333 25.1243 37.5425 23.3334 35.3333 23.3334C35.3338 23.3334 35.3329 23.3334 35.3333 23.3334L22.1801 23.3334L23.691 25.1464C24.1624 25.7121 24.0859 26.5529 23.5202 27.0243C22.9545 27.4957 22.1138 27.4193 21.6424 26.8536L18.309 22.8536Z" fill="#18B6FF"/>
<path d="M41.691 37.1464C42.103 37.6408 42.103 38.3591 41.691 38.8535L38.3576 42.8535C37.8862 43.4192 37.0455 43.4957 36.4798 43.0242C35.9141 42.5528 35.8376 41.7121 36.309 41.1464L37.82 39.3333H24.6667C24.6663 39.3333 24.667 39.3333 24.6667 39.3333C20.9852 39.3327 18 36.3481 18 32.6666C18 31.9302 18.597 31.3333 19.3333 31.3333C20.0697 31.3333 20.6667 31.9302 20.6667 32.6666C20.6667 34.8757 22.4575 36.6666 24.6667 36.6666C24.6662 36.6666 24.6671 36.6666 24.6667 36.6666H37.8199L36.309 34.8535C35.8376 34.2878 35.9141 33.4471 36.4798 32.9757C37.0455 32.5042 37.8862 32.5807 38.3576 33.1464L41.691 37.1464Z" fill="#18B6FF"/>
</svg>
