<svg width="20" height="19" viewBox="0 0 20 19" fill="none" xmlns="http://www.w3.org/2000/svg">
<path d="M7.88461 6.96788L8.46086 8.6049H7.30836L7.88461 6.96788Z" fill="#18B6FF"/>
<path fill-rule="evenodd" clip-rule="evenodd" d="M0 7.88462C0 3.5301 4.47712 0 10 0C15.5229 0 20 3.5301 20 7.88462C20 12.2392 15.5229 15.7692 10 15.7692C9.39385 15.7692 8.80029 15.7268 8.22385 15.6452C7.64683 16.0518 4.31308 18.3936 3.99846 18.4375C3.99846 18.4375 3.86942 18.4877 3.75971 18.4231C3.65 18.3585 3.6699 18.189 3.6699 18.189C3.70298 17.9636 4.53413 15.0934 4.68731 14.5651C1.87173 13.1702 0 10.6999 0 7.88462ZM3.89422 10.0861C3.89422 10.3899 4.15297 10.637 4.47115 10.637C4.78932 10.637 5.04807 10.3899 5.04807 10.0861V6.65865H5.94826C6.26038 6.65865 6.51441 6.40519 6.51441 6.09375C6.51441 5.78231 6.26047 5.52884 5.94826 5.52884H2.99403C2.68192 5.52884 2.42788 5.78231 2.42788 6.09375C2.42788 6.40519 2.68182 6.65865 2.99403 6.65865H3.89422V10.0861ZM9.0499 10.3747C9.10538 10.5318 9.28941 10.6295 9.52999 10.6295C9.65652 10.6296 9.7816 10.6025 9.89672 10.55C10.0558 10.4768 10.2086 10.275 10.0331 9.72961L8.65365 6.09894C8.55624 5.82211 8.26095 5.5374 7.88413 5.52894C7.50836 5.5375 7.21307 5.82211 7.11586 6.09836L5.73586 9.73067C5.56067 10.2748 5.71355 10.4765 5.87259 10.5499C5.98769 10.6025 6.11277 10.6296 6.23932 10.6295C6.4799 10.6295 6.66384 10.5319 6.71913 10.3751L7.00499 9.62673L8.76422 9.62683L9.0499 10.3747ZM10.4086 10.024C10.4086 10.3156 10.6566 10.5529 10.9615 10.5529H12.8125C13.1174 10.5529 13.3654 10.3156 13.3654 10.024C13.3654 9.7325 13.1174 9.49519 12.8125 9.49519H11.5865V6.10577C11.5865 5.78759 11.3223 5.52884 10.9976 5.52884C10.6729 5.52884 10.4086 5.78759 10.4086 6.10577V10.024ZM13.5898 10.0526C13.5898 10.3708 13.8485 10.6295 14.1667 10.6295C14.3197 10.6293 14.4664 10.5684 14.5746 10.4602C14.6828 10.352 14.7437 10.2053 14.7438 10.0523V8.79356L14.944 8.59336L16.297 10.3861C16.3506 10.4576 16.4202 10.5156 16.5002 10.5554C16.5802 10.5953 16.6685 10.6158 16.7579 10.6154C16.8832 10.6157 17.0051 10.5748 17.1049 10.4989C17.1655 10.4535 17.2165 10.3964 17.255 10.3311C17.2934 10.2658 17.3185 10.1935 17.3287 10.1185C17.3395 10.0434 17.3353 9.96702 17.3162 9.89364C17.2972 9.82027 17.2638 9.75141 17.218 9.69106L15.7979 7.80971L17.1126 6.49519C17.203 6.40471 17.2483 6.28 17.2399 6.14394C17.2316 6.00904 17.1713 5.87913 17.0703 5.77817C16.9619 5.6699 16.8173 5.60779 16.6733 5.60779C16.5498 5.60779 16.436 5.65336 16.3533 5.73615L14.7436 7.34577V6.10577C14.7436 5.78759 14.4849 5.52884 14.1667 5.52884C13.8485 5.52884 13.5898 5.78759 13.5898 6.10577V10.0526Z" fill="#18B6FF"/>
</svg>
