<svg width="20" height="19" viewBox="0 0 20 19" fill="none" xmlns="http://www.w3.org/2000/svg">
<path fill-rule="evenodd" clip-rule="evenodd" d="M20 8.00757C20 3.58511 15.5228 0 9.99996 0C4.47708 0 -0.00014428 3.58511 3.48723e-09 8.00757C3.48723e-09 11.9496 3.55726 15.2261 8.24157 15.8916L8.24366 15.8919C8.3537 15.9075 8.46467 15.9212 8.57593 15.934C9.57162 16.1414 9.40692 16.9973 9.26969 17.7104C9.1871 18.1396 9.11446 18.5171 9.31068 18.6704C9.91143 19.1399 14.4632 16.0968 17.2286 13.5407C17.6288 13.2055 17.9928 12.8425 18.3161 12.4557L18.3219 12.4494C18.399 12.3644 18.4602 12.2875 18.5071 12.2178C19.4534 10.9946 20 9.55232 20 8.00757ZM6.21469 10.5618H4.19784C3.91096 10.5618 3.67631 10.327 3.67631 10.0401V6.17197C3.67631 5.88509 3.91096 5.65044 4.19784 5.65044H4.24135C4.52824 5.65044 4.76288 5.88509 4.76288 6.17197V9.47511H6.21469C6.50157 9.47511 6.73622 9.70976 6.73622 9.99664V10.0402C6.73622 10.327 6.50157 10.5618 6.21469 10.5618ZM16.6953 8.09365V8.13716C16.6953 8.42397 16.4606 8.65869 16.1737 8.65854H14.7219V9.48435H16.1737C16.4606 9.48435 16.6953 9.71899 16.6953 10.0059V10.0494C16.6953 10.3363 16.4606 10.571 16.1737 10.571H14.1568C13.8699 10.571 13.6353 10.3363 13.6353 10.0494V6.18128C13.6353 5.89439 13.8699 5.65975 14.1568 5.65975H16.1737C16.4606 5.65975 16.6953 5.89439 16.6953 6.18128V6.22479C16.6953 6.51167 16.4606 6.74632 16.1737 6.74632H14.7219V7.57212H16.1737C16.4606 7.57212 16.6953 7.80677 16.6953 8.09365ZM12.8166 10.4063C12.7857 10.444 12.7417 10.476 12.6896 10.5009C12.6146 10.5409 12.5309 10.5618 12.4459 10.5618H12.4024C12.3325 10.5618 12.2657 10.5478 12.2046 10.5225C12.125 10.4927 12.0537 10.4439 12.0015 10.3728C11.9877 10.3562 11.9749 10.3386 11.9632 10.3204L10.0645 7.72711V10.0402C10.0645 10.3271 9.82989 10.5618 9.54301 10.5618H9.4995C9.21254 10.5618 8.9779 10.3271 8.9779 10.0402V6.17212C8.9779 5.88523 9.21261 5.65059 9.4995 5.65059H9.54301C9.73624 5.65059 9.9058 5.75709 9.99584 5.91431L11.8809 8.44273V6.17212C11.8809 5.88523 12.1156 5.65059 12.4025 5.65059H12.446C12.7329 5.65059 12.9676 5.88523 12.9676 6.17212V10.0402C12.9675 10.1773 12.9131 10.309 12.8166 10.4063ZM7.7222 10.5618H7.67869C7.39181 10.5618 7.15709 10.327 7.15709 10.0402V6.17204C7.15709 5.88516 7.39181 5.65051 7.67869 5.65051H7.7222C8.00909 5.65051 8.24373 5.88516 8.24373 6.17204V10.0402C8.24373 10.327 8.00909 10.5618 7.7222 10.5618Z" fill="#18B6FF"/>
</svg>
