<svg width="20" height="18" viewBox="0 0 20 18" fill="none" xmlns="http://www.w3.org/2000/svg">
<path fill-rule="evenodd" clip-rule="evenodd" d="M9.11363 7.60227C10.4243 6.33076 12.0387 5.76796 13.8953 5.67096C13.7899 4.54321 13.3909 3.58967 12.7403 2.74011C10.939 0.388152 7.60979 -0.598896 4.64742 0.368753C2.47704 1.07777 0.879725 2.43793 0.229284 4.68069C-0.473756 7.10503 0.465676 9.45982 2.69433 11.0333C3.04145 11.2786 3.09397 11.4884 2.98057 11.8651C2.87412 12.219 2.79964 12.5826 2.71946 12.9741C2.68349 13.1497 2.64637 13.3309 2.6047 13.5194C2.81415 13.3885 3.01425 13.2614 3.20829 13.1382C3.69371 12.8299 4.14121 12.5458 4.60234 12.2856C4.79679 12.1758 5.06921 12.1484 5.29878 12.1677C5.7725 12.2076 6.2443 12.2693 6.73898 12.334C6.93842 12.3601 7.14159 12.3866 7.35009 12.4125C7.18485 10.4611 7.78936 8.8869 9.11363 7.60227ZM4.52727 4.05931C4.98364 4.07265 5.36787 4.47214 5.35077 4.91555C5.33352 5.36993 4.94239 5.72747 4.47582 5.71566C4.00518 5.7037 3.64826 5.32976 3.66206 4.86311C3.67571 4.40267 4.06001 4.04559 4.52727 4.05931ZM8.97178 4.90275C8.96366 4.45757 9.35072 4.06744 9.80878 4.05901C10.2749 4.0505 10.6529 4.41532 10.6568 4.87783C10.6613 5.349 10.3031 5.71382 9.83086 5.7195C9.35984 5.72517 8.98014 5.36418 8.97178 4.90275Z" fill="#18B6FF"/>
<path fill-rule="evenodd" clip-rule="evenodd" d="M17.5339 16.9792C17.7084 17.0713 17.8851 17.1644 18.0664 17.2452C18.0537 17.1947 18.0443 17.1441 18.0351 17.0946C18.0158 16.9912 17.9974 16.8926 17.9516 16.809C17.5844 16.1395 17.7903 15.7216 18.3626 15.2138C20.3404 13.4592 20.5308 10.6866 18.9107 8.59791C17.0542 6.20432 13.1926 5.62925 10.5595 7.35431C7.59681 9.29528 7.23091 12.927 9.79165 15.2955C11.1381 16.5406 12.771 17.0486 14.5936 16.8621C14.8406 16.8369 15.088 16.7658 15.3337 16.6953C15.6833 16.595 16.0293 16.4956 16.3651 16.5307C16.7622 16.5722 17.1426 16.7728 17.5339 16.9792ZM12.0712 10.104C12.057 10.4736 11.7489 10.7665 11.3746 10.7661C11.0031 10.7657 10.6927 10.4677 10.68 10.0994C10.6665 9.71385 10.9916 9.381 11.3795 9.38277C11.7714 9.38438 12.0862 9.71263 12.0712 10.104ZM15.002 10.0459C15.0168 9.67904 15.3253 9.38177 15.6885 9.3843C16.0749 9.38698 16.38 9.7117 16.3655 10.105C16.3518 10.4787 16.0551 10.7627 15.6795 10.7615C15.2912 10.7605 14.9863 10.4383 15.002 10.0459Z" fill="#18B6FF"/>
</svg>
